<?xml version="1.0" standalone="no"?>
<!DOCTYPE svg PUBLIC "-//W3C//DTD SVG 1.1//EN" "http://www.w3.org/Graphics/SVG/1.1/DTD/svg11.dtd" >
<svg xmlns="http://www.w3.org/2000/svg">
<metadata>Generated by IcoMoon</metadata>
<defs>
<font id="icomoon" horiz-adv-x="1024">
<font-face units-per-em="1024" ascent="960" descent="-64" />
<missing-glyph horiz-adv-x="1024" />
<glyph unicode="&#x20;" horiz-adv-x="512" d="" />
<glyph unicode="&#xe900;" glyph-name="trash" horiz-adv-x="811" d="M65.399 609.535h10.438v-542.738c0-71.915 58.824-130.797 130.797-130.797h397.581c71.915 0 130.797 58.824 130.797 130.797v542.738h10.438c36.621 0 65.399 28.778 65.399 65.399v107.267c0 36.621-28.778 65.399-65.399 65.399h-162.17v40.542c0 39.216-32.699 71.915-71.915 71.915h-211.882c-39.216 0-71.915-32.699-71.915-71.915v-40.6h-162.17c-36.621 0-65.399-28.778-65.399-65.399v-107.267c0-35.294 30.104-65.341 65.399-65.341zM682.647 66.739c0-43.138-35.294-78.49-78.49-78.49h-397.524c-43.138 0-78.49 35.294-78.49 78.49v542.796h554.503v-542.796zM279.876 888.085c0 10.438 9.17 19.608 19.608 19.608h210.556c10.438 0 19.608-9.17 19.608-19.608v-40.542h-249.772v40.542zM52.307 782.144c0 7.843 5.248 13.091 13.091 13.091h680.052c7.843 0 13.091-5.248 13.091-13.091v-107.267c0-7.843-5.248-13.091-13.091-13.091h-680.052c-7.843 0-13.091 5.248-13.091 13.091v107.267zM513.961 497.020h52.307v-381.895h-52.307v381.895zM379.242 497.020h52.307v-381.895h-52.307v381.895zM244.581 497.020h52.307v-381.895h-52.307v381.895z" />
<glyph unicode="&#xe901;" glyph-name="upload" horiz-adv-x="724" d="M711.552 508.778h-29.848c0 0 1.434 32.709-14.917 74.6-16.451 42.145-50.779 93.531-89.53 119.363-79.39 52.922-194.004 29.846-194.004 29.846s-56.802-26.958-89.531-59.681c-40.951-40.95-74.615-104.445-74.615-104.445s-118.976-6.984-164.151-59.681c-44.349-51.739-14.92-134.282-14.92-134.282s19.828-38.309 44.775-59.682c27.183-23.307 59.689-29.845 59.689-29.845h298.451v-29.836h-298.451c0 0-57.648 16.409-89.545 44.752-35.104 31.201-44.76 74.612-44.76 74.612s-23.128 103.009 29.841 164.116c42.98 49.58 164.15 59.681 164.15 59.681s18.448 48.286 59.69 89.527c40.825 40.828 104.46 74.601 104.46 74.601s139.877 28.318 238.759-44.757c33.361-24.659 71.627-72.761 89.54-119.371 17.411-45.322 14.917-89.518 14.917-89.518v0zM696.635 359.568l-89.54 89.531v-283.492c0 0-5.886 0-12.438 0-8.193 0-17.402 0-17.402 0v283.492l-89.54-89.531h-29.849l134.304 134.292 134.306-134.292h-29.841z" />
<glyph unicode="&#xe902;" glyph-name="notification" horiz-adv-x="724" d="M696.3 635.386h-82.709v-83.246c0-15.332-12.462-27.76-27.839-27.76-15.364 0-27.824 12.428-27.824 27.76v83.246h-83.564c-15.334 0-27.746 12.416-27.746 27.739 0 15.332 12.411 27.756 27.746 27.756h83.564v83.238c0 15.324 12.46 27.76 27.824 27.76 15.377 0 27.839-12.437 27.839-27.76v-83.238h82.709c15.323 0 27.743-12.425 27.743-27.756 0-15.323-12.42-27.739-27.743-27.739v0zM36.966 625.71v-433.955c0-11.865 9.617-21.482 21.484-21.482h481.219c11.866 0 21.482 9.617 21.482 21.482v249.201h34.372v-249.203c0-30.851-25.007-55.854-55.854-55.854h-481.219c-30.848 0-55.855 25.004-55.855 55.854v433.955c0 30.848 25.009 55.855 55.855 55.855h292.168v-34.372h-292.168c-11.866 0.001-21.484-9.616-21.484-21.482v0z" />
<glyph unicode="&#xe903;" glyph-name="timer" horiz-adv-x="724" d="M362.935 418.23l135.512-139.384-15.486-19.361-143.256 147.13v174.23h23.23v-162.615zM362.935 104.614c-179.617 0-325.229 145.612-325.229 325.229h23.23c0-166.789 135.211-301.999 302-301.999s302 135.21 302 301.999c0 166.79-135.212 302-302 302v-73.564l-135.512 85.179 135.51 85.179v-73.564c179.624 0 325.231-145.613 325.231-325.232s-145.607-325.229-325.231-325.229v0z" />
<glyph unicode="&#xe904;" glyph-name="note" horiz-adv-x="724" d="M612.633 561.516c-15.87 0-28.739 12.692-28.739 28.353v207.925c0 15.661 12.869 28.353 28.739 28.353s28.74-12.692 28.74-28.353v-207.925c0-15.661-12.87-28.353-28.74-28.353v0zM478.521 561.516c-15.879 0-28.745 12.692-28.745 28.353v207.925c0 15.661 12.866 28.353 28.745 28.353 15.864 0 28.73-12.692 28.73-28.353v-207.925c0-15.661-12.866-28.353-28.73-28.353v0zM134.697 137.043h459.441v340.33h29.777v-353.089c0-9.401-7.618-17.017-17.014-17.017h-484.965c-9.396 0-17.016 7.618-17.016 17.017v684.906c0 9.394 7.621 17.016 17.016 17.016h225.466v-29.778h-212.705v-659.385z" />
<glyph unicode="&#xe905;" glyph-name="edit" horiz-adv-x="724" d="M362.456 105.723c-199.077 0-360.461 161.387-360.461 360.462s161.384 360.459 360.461 360.459c199.076 0 360.46-161.385 360.46-360.459 0-199.076-161.384-360.462-360.46-360.462v0zM362.456 795.873c-182.087 0-329.691-147.605-329.691-329.688 0-182.085 147.604-329.692 329.691-329.692 182.084 0 329.691 147.605 329.691 329.692-0.001 182.083-147.607 329.688-329.691 329.688v0zM346.22 349.78l-2.138-1.090c0 0-100.050-50.416-110.537-55.678-2.915-1.453-6.015-2.172-9.267-2.172-7.771 0-15.686 4.471-20.624 11.623-4.834 7.040-6.054 15.294-3.384 22.676 3.509 9.761 45.964 96.513 54.435 113.788l1.068 2.163 185.772 188.736c15.953 16.193 44.913 15.527 61.655-1.382l29.087-29.166c17.197-17.425 17.266-42.599 0.248-59.883l-186.315-189.616zM241.664 348.596c-5.58-11.58 3.999-20.064 15.11-14.474 27.885 14.079 60.996 30.761 69.715 35.142l132.623 135.053-49.986 50.613-132.866-135.048c-10.337-21.154-23.772-48.798-34.597-71.286v0zM513.040 577.857l-29.646 29.77c-5.959 6.054-15.823 6.697-20.906 1.523l-33.366-33.903 49.968-50.585 34.12 34.744c5.718 5.84 5.666 12.552-0.17 18.451v0z" />
<glyph unicode="&#xe906;" glyph-name="left" horiz-adv-x="724" d="M247.573 513.143l273.093-280.489-40.849-42.167-273.107 280.473 40.862 42.183zM479.109 752.134l40.954-42.073-272.383-281.158-40.968 42.058 272.396 281.173z" />
<glyph unicode="&#xe907;" glyph-name="right" horiz-adv-x="724" d="M479.455 429.039l-272.738 280.833 40.901 42.115 272.753-280.817-40.915-42.131zM247.618 190.342l-40.901 42.126 272.738 280.813 40.915-42.11-272.753-280.829z" />
<glyph unicode="&#xe908;" glyph-name="info" horiz-adv-x="724" d="M362.022 103.083c-199.963 0-362.653 163.548-362.653 364.468 0 182.094 135.144 337.306 314.356 361.087l5.932-45.163c-156.747-20.818-274.959-156.579-274.959-315.923 0-175.812 142.351-318.885 317.325-318.885 174.972 0 317.323 143.073 317.323 318.885 0 159.344-118.21 295.105-274.956 315.923l5.93 45.163c179.212-23.78 314.356-178.994 314.356-361.087 0.001-200.92-162.69-364.468-362.653-364.468v0zM362.022 535.911c-37.492 0-67.999 30.668-67.999 68.346 0 37.673 30.508 68.298 67.999 68.298 37.495 0 68.002-30.627 68.002-68.298 0.001-37.679-30.505-68.346-68.002-68.346v0zM362.022 627.035c-12.496 0-22.664-10.213-22.664-22.778 0-12.578 10.166-22.791 22.664-22.791 12.5 0 22.664 10.213 22.664 22.791 0 12.563-10.162 22.778-22.664 22.778v0zM339.359 262.569v227.775h45.327v-227.775h-45.327z" />
<glyph unicode="&#xe909;" glyph-name="up" horiz-adv-x="724" d="M361.19 662.13l-360.516-387.373 718.836-2.015-358.32 389.389z" />
<glyph unicode="&#xe90a;" glyph-name="down" horiz-adv-x="724" d="M360.625 273.762l359.43 388.384h-718.839l359.409-388.384z" />
<glyph unicode="&#xe90b;" glyph-name="minus" horiz-adv-x="724" d="M0 548.939h724.043v-133.946h-724.043v133.946z" />
<glyph unicode="&#xe90c;" glyph-name="plus" horiz-adv-x="724" d="M310.536 139.856v655.42h102.968v-655.419l-102.968-0.001zM1.633 420.741v93.624h720.779v-93.624h-720.779z" />
<glyph unicode="&#xe90d;" glyph-name="menu" horiz-adv-x="724" d="M-0.001 651.225v72.192h724.047v-72.192h-724.047zM-0.001 434.658v72.189h724.047v-72.189h-724.047zM-0.001 218.092v72.193h724.047v-72.193h-724.047z" />
<glyph unicode="&#xe90e;" glyph-name="close" horiz-adv-x="724" d="M109.822 104.547l-108.317 108.292 612.726 612.687 108.309-108.298-612.718-612.681zM614.231 104.547l-612.726 612.681 108.317 108.298 612.718-612.687-108.309-108.292z" />
<glyph unicode="&#xe90f;" glyph-name="search" horiz-adv-x="724" d="M716.034 111.168c-8.791-8.829-23.036-8.829-31.82 0l-218.397 220.554c-49.404-43.106-113.875-69.265-184.478-69.265-155.376 0-281.339 126.409-281.339 282.343 0 155.941 125.962 282.347 281.339 282.347 155.38 0 281.336-126.408 281.336-282.347 0-68.82-24.555-131.861-65.329-180.851l218.688-220.83c8.793-8.829 8.793-23.121 0-31.951v0zM518.044 544.8c0 131.175-105.972 237.564-236.704 237.564-130.725 0-236.701-106.388-236.701-237.564 0-131.202 105.976-237.559 236.7-237.559 130.733 0.001 236.705 106.357 236.705 237.559v0z" />
<glyph unicode="&#xe910;" glyph-name="prev" horiz-adv-x="724" d="M657.364 855.603v0c39.871-0.028 66.712-31.241 66.679-77.693l-0.442-624.969c-0.044-63.257-54.841-96.312-111.24-64.992l-570.085 315.392c-27.725 15.278-43.573 38.123-43.555 62.599 0.017 24.47 15.898 47.299 43.644 62.621l570.529 314.579c15.087 8.264 29.998 12.474 44.47 12.464v0zM656.844 122.824c16.47-0.012 18.995 18.863 19.002 30.151l0.442 624.967c0.009 11.292-2.489 30.167-18.959 30.178v0c-6.158 0.005-13.438-2.233-21.324-6.536l-570.614-314.665c-11.623-6.37-18.906-14.463-18.91-21.013s7.266-14.57 18.881-21.042l570.169-315.386c7.879-4.318 15.158-6.651 21.313-6.654v0z" />
<glyph unicode="&#xe911;" glyph-name="next" horiz-adv-x="724" d="M66.206 76.182v0c-39.871 0-66.735 31.194-66.735 77.647v624.969c0 63.257 54.773 96.35 111.195 65.070l570.308-314.989c27.736-15.256 43.6-38.090 43.6-62.567 0-24.47-15.864-47.31-43.6-62.652l-570.306-314.982c-15.080-8.273-29.989-12.495-44.461-12.495v0zM66.206 808.961c-16.47 0-18.979-18.876-18.979-30.163v-624.969c0-11.292 2.51-30.166 18.979-30.166v0c6.157 0 13.435 2.244 21.319 6.552l570.391 315.070c11.619 6.378 18.895 14.477 18.895 21.026s-7.276 14.565-18.895 21.028l-570.39 314.984c-7.885 4.311-15.164 6.637-21.321 6.637v0z" />
<glyph unicode="&#xe912;" glyph-name="grid" horiz-adv-x="724" d="M255.717 512.936h-193.306c-33.732 0-61.196 27.456-61.196 61.207v193.279c0 33.753 27.463 61.216 61.196 61.216h193.306c33.738 0 61.201-27.463 61.201-61.216v-193.279c0.001-33.751-27.463-61.207-61.201-61.207v0zM271.82 767.423c0 8.899-7.226 16.11-16.103 16.11h-193.306c-8.873 0-16.099-7.212-16.099-16.11v-193.279c0-8.884 7.226-16.104 16.099-16.104h193.306c8.877 0 16.103 7.22 16.103 16.104v193.279zM661.627 512.936h-193.303c-33.736 0-61.2 27.456-61.2 61.207v193.279c0 33.753 27.464 61.216 61.2 61.216h193.303c33.738 0 61.202-27.463 61.202-61.216v-193.279c0-33.751-27.464-61.207-61.202-61.207v0zM677.728 767.423c0 8.899-7.222 16.11-16.102 16.11h-193.303c-8.878 0-16.099-7.212-16.099-16.11v-193.279c0-8.884 7.222-16.104 16.099-16.104h193.303c8.88 0 16.102 7.22 16.102 16.104v193.279zM255.717 107.029h-193.306c-33.732 0-61.196 27.451-61.196 61.205v193.291c0 33.745 27.463 61.201 61.196 61.201h193.306c33.738 0 61.201-27.456 61.201-61.201v-193.291c0.001-33.754-27.463-61.205-61.201-61.205v0zM271.82 361.525c0 8.886-7.226 16.104-16.103 16.104h-193.306c-8.873 0-16.099-7.219-16.099-16.104v-193.291c0-8.886 7.226-16.104 16.099-16.104h193.306c8.877 0 16.103 7.219 16.103 16.104v193.291zM661.627 107.029h-193.303c-33.736 0-61.2 27.451-61.2 61.205v193.291c0 33.745 27.464 61.201 61.2 61.201h193.303c33.738 0 61.202-27.456 61.202-61.201v-193.291c0-33.754-27.464-61.205-61.202-61.205v0zM677.728 361.525c0 8.886-7.222 16.104-16.102 16.104h-193.303c-8.878 0-16.099-7.219-16.099-16.104v-193.291c0-8.886 7.222-16.104 16.099-16.104h193.303c8.88 0 16.102 7.219 16.102 16.104v193.291z" />
<glyph unicode="&#xe913;" glyph-name="equalizer" horiz-adv-x="724" d="M91.109 378.302c-49.962 0-90.631 40.268-90.631 89.773s40.669 89.78 90.631 89.78c49.964 0 90.632-40.276 90.632-89.78s-40.669-89.773-90.632-89.773v0zM91.109 512.896c-24.945 0-45.249-20.11-45.249-44.821 0-24.703 20.304-44.822 45.249-44.822 24.94 0 45.243 20.119 45.243 44.822 0 24.709-20.303 44.821-45.243 44.821v0zM362.261 244c-49.964 0-90.632 40.272-90.632 89.776s40.669 89.781 90.632 89.781c49.961 0 90.63-40.276 90.63-89.781-0.001-49.503-40.669-89.776-90.63-89.776v0zM362.261 378.596c-24.938 0-45.25-20.108-45.25-44.82 0-24.707 20.311-44.814 45.25-44.814 24.945 0 45.247 20.107 45.247 44.814 0 24.711-20.303 44.82-45.247 44.82v0zM633.415 512.593c-49.968 0-90.637 40.277-90.637 89.782s40.669 89.773 90.637 89.773c49.961 0 90.63-40.27 90.63-89.773 0-49.505-40.667-89.782-90.63-89.782v0zM633.415 647.188c-24.945 0-45.248-20.11-45.248-44.813 0-24.711 20.303-44.822 45.248-44.822s45.247 20.112 45.247 44.822c0.001 24.703-20.301 44.813-45.247 44.813v0zM91.147 512.849c-12.483 0-22.599 10.018-22.599 22.379v268.598c0 12.361 10.116 22.38 22.599 22.38 12.474 0 22.595-10.019 22.595-22.38v-268.598c0-12.361-10.121-22.379-22.595-22.379v0zM91.147 109.957c-12.483 0-22.599 10.016-22.599 22.38v268.597c0 12.357 10.116 22.379 22.599 22.379 12.474 0 22.595-10.022 22.595-22.379v-268.596c0-12.364-10.121-22.381-22.595-22.381v0zM362.298 378.55c-12.482 0-22.598 10.018-22.598 22.384v402.892c0 12.361 10.116 22.38 22.598 22.38 12.478 0 22.597-10.019 22.597-22.38v-402.892c0-12.366-10.118-22.384-22.597-22.384v0zM362.298 109.957c-12.482 0-22.598 10.016-22.598 22.38v134.299c0 12.363 10.116 22.379 22.598 22.379 12.478 0 22.597-10.016 22.597-22.379v-134.298c0-12.364-10.118-22.381-22.597-22.381v0zM633.45 647.147c-12.487 0-22.598 10.020-22.598 22.379v134.3c0 12.361 10.111 22.38 22.598 22.38 12.473 0 22.593-10.019 22.593-22.38v-134.3c0-12.359-10.12-22.379-22.593-22.379v0zM633.45 109.957c-12.487 0-22.598 10.016-22.598 22.38v402.891c0 12.361 10.111 22.385 22.598 22.385 12.473 0 22.593-10.024 22.593-22.385v-402.89c0-12.364-10.12-22.381-22.593-22.381v0z" />
<glyph unicode="&#xe914;" glyph-name="truck" horiz-adv-x="724" d="M722.993 478.906v-152.983c0-6.411-5.469-11.573-12.265-11.573h-40.879c-6.754 0-12.215 5.161-12.215 11.573 0 6.373 5.461 11.528 12.215 11.528h28.661v131.354h-110.554c-6.747 0-12.215 5.151-12.215 11.525v143.843h-98.284v-212.014c0-6.372-5.511-11.574-12.26-11.574-6.754 0-12.215 5.201-12.215 11.574v290.033h-145.873l-231.976-364.741h19.777c6.796 0 12.263-5.154 12.263-11.528 0-6.411-5.467-11.573-12.263-11.573h-41.369c-4.401 0-8.486 2.221-10.663 5.871-2.18 3.603-2.137 8.051 0.133 11.612l246.682 387.839c2.221 3.484 6.174 5.578 10.482 5.578h165.024c6.749 0 12.26-5.155 12.26-11.534v-66.446h233.27c6.797 0 12.265-5.196 12.265-11.57v-153.947c0.085-0.54 0.623-0.881 0.623-1.424 0-0.551-0.538-0.882-0.623-1.423v0zM698.51 624.174h-98.286v-132.277h98.286v132.277zM546.863 236.749c-52.074 0-94.468 39.953-94.468 89.129 0 49.139 42.395 89.087 94.468 89.087s94.411-39.949 94.411-89.087c0-49.177-42.337-89.129-94.411-89.129v0zM546.863 391.868c-38.573 0-69.978-29.594-69.978-65.991 0-36.433 31.405-66.027 69.978-66.027 38.566 0 69.935 29.594 69.935 66.027 0 36.397-31.37 65.991-69.935 65.991v0zM217.98 236.79c-52.073 0-94.461 39.953-94.461 89.134 0 49.134 42.388 89.084 94.461 89.084s94.415-39.95 94.415-89.084c0-49.182-42.341-89.134-94.415-89.134v0zM217.98 391.91c-38.568 0-69.979-29.598-69.979-65.986 0-36.431 31.411-66.032 69.979-66.032s69.938 29.601 69.938 66.032c0 36.388-31.37 65.986-69.938 65.986v0zM423.786 314.351h-82.774c-6.8 0-12.263 5.161-12.263 11.573 0 6.373 5.462 11.528 12.263 11.528h82.774c6.797 0 12.26-5.154 12.26-11.528 0-6.412-5.464-11.573-12.26-11.573v0zM176.884 623.838h-164.4c-6.753 0-12.22 5.155-12.22 11.528 0 6.37 5.467 11.531 12.22 11.531h164.4c6.753 0 12.214-5.161 12.214-11.531 0-6.373-5.461-11.528-12.214-11.528v0zM127.163 546.235h-114.72c-6.759 0-12.22 5.196-12.22 11.57s5.461 11.531 12.22 11.531h114.72c6.753 0 12.22-5.157 12.22-11.531 0-6.372-5.467-11.57-12.22-11.57v0zM78.378 469.138h-65.894c-6.753 0-12.22 5.194-12.22 11.567s5.467 11.531 12.22 11.531h65.892c6.753 0 12.263-5.158 12.263-11.531 0.001-6.373-5.509-11.567-12.262-11.567v0z" />
<glyph unicode="&#xe915;" glyph-name="follow" horiz-adv-x="724" d="M481.44 356.557l60.105-28.122-11.178-45.185-67.824 32.171c-14.311 6.586-24.192 20.138-26.040 35.813-1.861 15.647 4.562 31.144 16.942 40.89 48.538 38.232 66.631 121.536 66.631 165.063v113.114c0 48.33-81.471 113.074-158.303 113.074-76.154 0-158.45-65.784-158.45-113.074v-113.114c0-44.191 21.891-127.18 68.899-164.934 12.229-9.813 18.506-25.26 16.582-40.819-1.91-15.564-11.741-29.050-25.983-35.587l-198.686-93.812c-5.383-2.479-18.891-8.135-18.891-26.126v-45.928l497.612 0.017v-45.261h-497.646c-24.965-0.001-45.211 20.243-45.211 45.244v67.93c0 25.090 45.211 45.244 45.211 45.244l198.686 93.807c-63.271 50.808-85.817 150.812-85.817 200.232v113.114c0 74.922 103.795 158.332 203.692 158.332 99.89 0 203.545-83.416 203.545-158.332v-113.114c0.005-54.334-21.208-151.277-83.877-200.637v0zM610.73 104.547c-12.498 0-22.633 10.129-22.633 22.633v181.071c0 12.498 10.129 22.633 22.631 22.633 12.489 0 22.626-10.133 22.626-22.633v-181.070c0-12.505-10.134-22.634-22.623-22.634v0zM701.213 195.082h-180.975c-12.495 0-22.627 10.137-22.627 22.633 0 12.498 10.125 22.637 22.627 22.637h180.975c12.494 0 22.626-10.133 22.626-22.637-0.001-12.496-10.128-22.633-22.626-22.633v0z" />
<glyph unicode="&#xe916;" glyph-name="list" horiz-adv-x="1009" d="M203.114 575.208h-151.813c-28.281 0-51.302-23.021-51.302-51.302v-151.813c0-28.281 23.021-51.302 51.302-51.302h151.813c28.281 0 51.302 23.021 51.302 51.302v151.813c0 28.281-23.021 51.302-51.302 51.302zM51.302 372.094v151.813h151.813l0.057-151.813h-151.869zM983.388 473.623h-639.208c-14.141 0-25.679-11.482-25.679-25.679 0-14.141 11.482-25.679 25.679-25.679h639.208c14.141 0 25.679 11.482 25.679 25.679s-11.482 25.679-25.679 25.679zM203.114 190.416h-151.813c-28.281 0-51.302-23.021-51.302-51.302v-151.813c0-28.281 23.021-51.302 51.302-51.302h151.813c28.281 0 51.302 23.021 51.302 51.302v151.813c0 28.281-23.021 51.302-51.302 51.302zM51.302-12.698v151.813h151.813l0.057-151.813h-151.869zM983.388 88.831h-639.208c-14.141 0-25.679-11.482-25.679-25.679s11.482-25.679 25.679-25.679h639.208c14.141 0 25.679 11.482 25.679 25.679s-11.482 25.679-25.679 25.679zM203.114 960h-151.813c-28.281 0-51.302-23.021-51.302-51.302v-151.813c0-28.281 23.021-51.302 51.302-51.302h151.813c28.281 0 51.302 23.021 51.302 51.302v151.813c0 28.281-23.021 51.302-51.302 51.302zM51.302 756.886v151.813h151.813l0.057-151.813h-151.869zM344.18 807.169h639.208c14.141 0 25.679 11.482 25.679 25.679s-11.482 25.679-25.679 25.679h-639.208c-14.141 0-25.679-11.482-25.679-25.679s11.539-25.679 25.679-25.679z" />
<glyph unicode="&#xe917;" glyph-name="categories" horiz-adv-x="724" d="M228.064 421.169c-24.869 0-45.031 20.075-45.031 44.832 0 24.763 20.163 44.837 45.031 44.837 24.866 0 45.027-20.073 45.027-44.837-0.001-24.758-20.16-44.832-45.027-44.832v0zM498.216 421.169c-24.865 0-45.025 20.075-45.025 44.832 0 24.763 20.159 44.837 45.025 44.837s45.027-20.073 45.027-44.837c0-24.758-20.159-44.832-45.027-44.832v0zM710.756 124.075c-7.078-7.771-20.359-17.028-43.509-17.028h-614.569c-16.34 0-29.066 4.943-37.819 14.686-9.276 10.356-12.925 25.024-10.834 43.633l54.364 353.191c5.104 44.793 46.984 82.009 93.238 82.009h418.776c46.254 0 88.136-37.217 93.369-82.976l58.681-352.924c2.131-20.886-5.212-33.453-11.697-40.591v0zM619.235 511.287c-2.881 24.656-25.151 44.44-48.831 44.44h-418.776c-23.675 0-45.944-19.785-48.646-43.213l-54.35-353.146c-0.899-5.433 2.969-7.49 6.837-7.49l613.821 0.307c6.596 0 8.861 3.655 8.58 6.524l-58.635 352.578zM498.185 443.267c-12.447 0-22.513 10.032-22.513 22.417v194.622c0 66.448-45.142 120.519-111.842 120.519-66.698 0-113.222-54.071-113.222-120.519v-193.157c0-12.384-10.069-22.415-22.513-22.415s-22.513 10.031-22.513 22.415v193.157c0 91.182 66.729 165.359 158.247 165.359 91.546 0 156.865-74.176 156.865-165.359v-194.623c0-12.384-10.072-22.415-22.51-22.415v0z" />
<glyph unicode="&#xe918;" glyph-name="tick" horiz-adv-x="791" d="M243.437 164.777l-242.887 227.81 60.717 56.948 242.89-227.808-60.72-56.951zM243.437 164.777l-60.728 56.95 546.51 512.549 60.721-56.947-546.503-512.552z" />
<glyph unicode="&#xe919;" glyph-name="user" horiz-adv-x="791" d="M395.957 63.002c-216.959 0-392.836 175.885-392.836 392.842s175.877 392.833 392.836 392.833c216.956 0 392.833-175.877 392.833-392.835s-175.877-392.841-392.833-392.841v0zM395.957 824.867c-203.808 0-369.025-165.216-369.025-369.024 0-203.811 165.217-369.032 369.025-369.032s369.030 165.221 369.030 369.032c0 203.808-165.222 369.024-369.030 369.024v0zM568.496 292.521h-345.007c-13.609 0-24.639 10.751-24.639 24.027v36.065c0 13.318 24.639 24.019 24.639 24.019l108.267 49.815c-34.472 26.976-46.761 80.070-46.761 106.315v60.057c0 39.78 56.559 84.071 111.001 84.071 54.435 0 110.919-44.292 110.919-84.071v-60.057c0-28.849-11.556-80.322-45.713-106.528l107.294-49.602c0 0 24.645-9.901 24.645-24.019v-36.065c0-13.276-11.025-24.027-24.645-24.027v0zM568.487 340.016c0 12.852-9.446 14.406-10.281 14.778l-107.294 49.597c-7.8 3.497-13.18 10.687-14.192 19.009-1.011 8.308 2.493 16.538 9.229 21.715 26.453 20.305 36.309 64.531 36.309 87.648v60.057c0 25.665-44.393 60.040-86.262 60.040-41.502 0-86.348-34.928-86.348-60.040v-60.057c0-23.468 11.939-67.532 37.543-87.575 6.67-5.213 10.089-13.417 9.038-21.68-1.040-8.259-6.397-15.425-14.154-18.894l-108.279-49.805c-2.934-1.32-10.293-4.32-10.293-13.877v-24.382l344.994 0.013-0.009 23.454z" />
<glyph unicode="&#xe91a;" glyph-name="dashboard" horiz-adv-x="791" d="M397.399 56.747c-217.145 0-393.798 176.482-393.798 393.375 0 216.822 176.653 393.312 393.798 393.312 217.194 0 393.874-176.49 393.874-393.312 0-216.893-176.68-393.375-393.874-393.375v0zM397.399 782.127c-183.333 0-332.474-148.973-332.474-332.006 0-183.103 149.141-332.077 332.474-332.077 183.354 0 332.516 148.974 332.516 332.077 0 183.034-149.16 332.006-332.516 332.006v0zM398.317 263.173c-103.384 0-187.454 84.572-187.454 188.499 0 103.93 84.070 188.495 187.454 188.495 103.317 0 187.418-84.565 187.418-188.495 0-103.927-84.101-188.499-187.418-188.499v0zM398.511 610.223c-87.867 0-159.395-71.889-159.395-160.304 0-88.348 71.527-160.238 159.395-160.238s159.395 71.889 159.395 160.238c0 88.414-71.527 160.304-159.395 160.304v0zM397.221 367.973c-46.357 0-83.787 37.098-83.787 82.754 0 45.861 37.43 82.948 83.787 82.948 46.28 0 83.779-37.088 83.779-82.948-0.001-45.655-37.499-82.754-83.779-82.754v0zM651.009 678.942l-103.256-101.358c-3.364-3.307-7.768-4.993-12.174-4.993-4.402 0-8.81 1.686-12.176 4.993-6.726 6.607-6.726 17.263 0 23.874l103.262 101.359c6.721 6.612 17.615 6.612 24.343 0 6.722-6.612 6.722-17.263 0-23.875v0zM273.467 299.727l-104.735-102.1c-3.354-3.309-7.684-4.929-12.009-4.929-4.489 0-8.957 1.752-12.333 5.257-6.63 6.815-6.478 17.744 0.327 24.421l104.736 102.1c6.823 6.679 17.725 6.474 24.348-0.34 6.629-6.803 6.479-17.729-0.335-24.409v0z" />
<glyph unicode="&#xe91b;" glyph-name="sync" horiz-adv-x="791" d="M6.041 233.604l130.139 136.27v-102.203h357.929c125.807 0 227.793 106.773 227.793 238.469s-101.986 238.439-227.793 238.439c-125.807 0-227.771-106.744-227.771-238.439h-65.090c0 169.339 131.125 306.592 292.861 306.592 161.755 0 292.881-137.255 292.881-306.592 0-169.328-131.126-306.583-292.881-306.583h-357.929v-102.194l-130.139 136.242z" />
<glyph unicode="&#xe91c;" glyph-name="tick-bold" horiz-adv-x="791" d="M765.163 593.152l-404.397-366.469c-13.712-12.39-32.645-20.109-53.629-20.109-20.911 0-39.844 7.719-53.598 20.109l-227.464 206.231c-13.717 12.388-22.189 29.567-22.189 48.499 0 37.988 33.914 68.727 75.786 68.727 20.943 0 39.899-7.719 53.611-20.096l173.852-157.612 350.816 317.899c13.718 12.457 32.671 20.167 53.613 20.167 41.875 0 75.828-30.803 75.828-68.726 0.003-18.989-8.474-36.165-22.228-48.621z" />
<glyph unicode="&#xe91d;" glyph-name="user-bold" horiz-adv-x="791" d="M573.664 358.642l-114.277 52.827c-8.31 3.726-14.037 11.384-15.116 20.249-1.077 8.846 2.652 17.612 9.834 23.125 28.17 21.623 38.67 68.732 38.67 93.351v63.966c0 27.335-47.286 63.948-91.877 63.948-44.204 0-91.967-37.201-91.967-63.948v-63.966c0-24.992 12.707-71.922 39.986-93.278 7.096-5.545 10.739-14.284 9.623-23.084-1.109-8.804-6.815-16.425-15.079-20.126l-115.322-53.054c-3.128-1.399-10.963-4.595-10.963-14.77v-25.979l367.445 0.014-0.014 24.99c0.004 13.687-10.055 15.339-10.945 15.736zM396.929 843.594c-217.075 0-393.051-175.974-393.051-393.051s175.975-393.051 393.051-393.051c217.078 0 393.051 175.973 393.051 393.051 0 217.075-175.973 393.051-393.051 393.051zM610.877 317.9c0-14.134-11.745-25.584-26.25-25.584h-367.463c-14.492 0-26.245 11.45-26.245 25.584v38.418c0 14.185 26.245 25.587 26.245 25.587l115.316 53.049c-36.722 28.741-49.809 85.287-49.809 113.239v63.966c0 42.371 60.241 89.548 118.229 89.548 57.976 0 118.139-47.179 118.139-89.548v-63.966c0-30.728-12.31-85.553-48.689-113.464l114.277-52.823c0 0 26.25-10.553 26.25-25.587v-38.419z" />
<glyph unicode="&#xe91e;" glyph-name="close-thin" horiz-adv-x="791" d="M80.796 1.142l-65.493 58.232 700.942 788.667 65.483-58.285-700.932-788.614zM716.245 1.142l-700.944 788.614 65.493 58.285 700.932-788.667-65.482-58.232z" />
<glyph unicode="&#xe91f;" glyph-name="left-thin" horiz-adv-x="791" d="M658.544 902.856l-504.606-477.776c-11.784-7.88-26.858-3.219-33.661 10.447-6.805 13.622-2.767 31.072 9.025 38.957l504.597 477.776c11.785 7.88 26.858 3.201 33.673-10.451 6.802-13.624 2.762-31.073-9.027-38.953v0zM667.572-45.837c-6.815-13.648-21.888-18.334-33.673-10.452l-504.597 477.802c-11.792 7.86-15.829 25.313-9.025 38.961 6.803 13.642 21.878 18.298 33.661 10.446l504.606-477.802c11.789-7.879 15.829-25.332 9.027-38.955v0z" />
<glyph unicode="&#xe920;" glyph-name="card" horiz-adv-x="791" d="M350.584 315.428h-231.418c-7.602 0-13.757 6.122-13.757 13.688 0 7.617 6.154 13.739 13.757 13.739h231.416c7.605 0 13.761-6.122 13.761-13.739 0.001-7.566-6.154-13.688-13.759-13.688v0zM720.924 200.277h-648.531c-16.207 0.146-31.216 6.472-42.418 17.87-11.258 11.4-17.311 26.484-17.162 42.469v368.896c0.303 31.263 25.314 56.951 56.829 58.694l6.404 0.050h647.977c32.667-2.239 57.229-28.525 56.88-59.837v-368.9c-0.301-32.759-27.265-59.242-59.979-59.242v0zM40.377 458.306h440.572l55.48 110.375h-496.052v-110.375zM511.968 458.306h38.417l55.428 110.375h-38.417l-55.428-110.375zM753.387 628.567c0.153 16.976-13.159 31.065-30.314 32.309l-4.705-0.050h-647.977c-16.608-0.944-29.863-14.436-30.014-31.463v-32.955h713.010v32.16zM753.387 568.679h-116.608l-55.429-110.375h172.038v110.375h-0.001zM753.387 430.575h-713.010v-170.060c-0.097-8.815 3.153-17.025 9.255-23.149 6.104-6.172 14.208-9.609 22.863-9.659h648.43c17.705 0 32.265 14.339 32.463 31.96v170.908z" />
<glyph unicode="&#xe921;" glyph-name="diamond" horiz-adv-x="791" d="M783.665 551.208c0 0.581-0.509 0.871-0.613 1.453-0.151 1.259 0.103 2.566-0.458 3.778l-79.738 179.196c-2.193 4.894-7.288 8.138-12.945 8.138h-588.43c-5.655 0-10.751-3.245-12.94-8.138l-79.792-179.196c-0.56-1.213-0.309-2.519-0.509-3.778-0.050-0.582-0.564-0.873-0.564-1.453 0-0.29 0.309-0.485 0.309-0.774 0.204-2.907 1.069-5.717 3.157-8.042l373.981-403.446c0.309-0.341 0.869-0.194 1.174-0.531 1.019-0.875 1.832-1.646 3.056-2.279 0.255-0.096 0.305-0.529 0.659-0.627 1.837-0.728 3.771-1.116 5.609-1.116 1.883 0 3.819 0.388 5.653 1.116 0.358 0.098 0.409 0.531 0.666 0.677 1.222 0.582 2.036 1.354 3.002 2.229 0.358 0.337 0.919 0.19 1.227 0.531l373.979 403.446c2.087 2.325 3.006 5.136 3.21 8.042 0.001 0.29 0.305 0.485 0.305 0.774v0zM491.052 717.082l68.785-152.55h-328.328l68.837 152.55h190.706zM559.634 537.884l-164.009-356.789-163.911 356.789h327.92zM201.040 537.884l145.773-317.308-294.090 317.308h148.317zM590.308 537.884h148.267l-294.094-317.263 145.827 317.263zM748.51 564.532h-158.154l-68.781 152.55h159.015l67.92-152.55zM110.755 717.082h159.121l-68.836-152.55h-158.203l67.918 152.55z" />
<glyph unicode="&#xe922;" glyph-name="mail" horiz-adv-x="791" d="M719.427 130.908h-647.483c-39.733 0-71.944 33.32-71.944 74.421v483.728c0 41.102 32.211 74.418 71.944 74.418h647.483c39.732 0 71.942-33.316 71.942-74.418v-483.729c-0.001-41.1-32.211-74.42-71.942-74.42v0zM755.397 689.056c0 20.551-16.105 37.208-35.969 37.208h-647.483c-19.871 0-35.976-16.657-35.976-37.208v-483.729c0-20.551 16.106-37.209 35.976-37.209h647.483c19.865 0 35.969 16.659 35.969 37.209v483.729zM685.121 634.413l-271.514-182.392c-8.33-5.596-19.466-3.147-24.881 5.469-5.407 8.617-3.040 20.14 5.293 25.736l271.509 182.397c8.333 5.595 19.473 3.147 24.882-5.47 5.411-8.621 3.044-20.141-5.289-25.74v0zM402.639 457.49c-5.412-8.616-16.549-11.065-24.881-5.469l-271.515 182.392c-8.328 5.598-10.694 17.118-5.284 25.738 5.411 8.617 16.546 11.065 24.877 5.47l271.515-182.397c8.333-5.595 10.699-17.118 5.288-25.734v0z" />
<glyph unicode="&#xe923;" glyph-name="payment" horiz-adv-x="791" d="M439.997 827.367c0 21.725-17.078 39.341-38.149 39.341h-354.651c-21.067 0.001-38.147-17.615-38.147-39.341v-757.831c0-21.732 17.080-39.337 38.145-39.337h354.651c21.071 0 38.149 17.606 38.149 39.337v757.831h0.001zM414.649 213.183h-380.252v522.817h380.252v-522.817zM401.848 56.336h-354.651c-7.057 0-12.799 4.126-12.799 11.402v119.301h380.252v-119.301c-0.001-7.275-5.747-11.402-12.803-11.402v0zM47.196 840.563h354.651c7.056 0 12.801-7.719 12.801-14.994v-63.426h-380.251v63.426c0 7.275 5.742 14.994 12.799 14.994v0zM161.152 801.352c0 7.224 5.666 13.073 12.672 13.073h101.402c7.005 0 12.672-5.848 12.672-13.073 0-7.222-5.667-13.068-12.672-13.068h-101.402c-7.006 0-12.672 5.845-12.672 13.068v0zM224.521 159.1c-20.964 0-38.022-17.589-38.022-39.209 0-21.624 17.059-39.216 38.022-39.216 20.967 0 38.028 17.592 38.028 39.216 0 21.62-17.059 39.209-38.028 39.209v0zM224.521 106.822c-6.993 0-12.672 5.856-12.672 13.068s5.679 13.068 12.672 13.068c6.999 0 12.676-5.857 12.676-13.068 0.001-7.212-5.677-13.068-12.676-13.068v0zM748.839 618.365h-283.49v-26.138h283.49c4.655 0 8.032-0.755 8.032-5.552v-7.521h-291.522v-26.138h193.051l-43.392-78.421h-149.659v-26.146h291.522v-151.099c0-4.801-3.377-5.744-8.032-5.744h-283.49v-26.139h283.49c18.629 0 33.383 12.676 33.383 31.884v289.325c0 19.209-14.755 31.69-33.383 31.69v0zM687.568 553.017h8.954l-41.16-78.421h-11.183l43.389 78.421zM684.192 474.596l41.16 78.421h31.518v-78.421h-72.678zM478.024 383.098c-7.004 0-12.676 5.851-12.676 13.068 0 7.229 5.672 13.070 12.676 13.070h25.347c7.005 0 12.677-5.843 12.677-13.070 0-7.217-5.672-13.068-12.677-13.068h-25.347z" />
<glyph unicode="&#xe924;" glyph-name="wallet" horiz-adv-x="791" d="M779.647 297.144v-175.141c0-7.38-6.185-13.28-13.858-13.28h-696.222c-33.188 0-60.141 25.908-60.141 57.903v484.267c-0.096 15.488 6.187 30.013 17.505 40.891 11.366 11.020 26.474 17.012 42.636 17.012h145.518c7.628 0 13.815-5.993 13.815-13.28 0-7.33-6.187-13.277-13.815-13.277h-145.518c-8.776 0-16.976-3.318-23.066-9.221-6.14-5.9-9.498-13.691-9.498-22.127 0-3.411 0.958-6.547 2.011-9.636 1.54-4.658 3.885-8.943 7.487-12.447 6.136-5.947 14.289-9.268 22.969-9.268h90.559l181.584 174.545c2.632 2.535 6.138 3.964 9.784 3.964 3.69 0 7.193-1.429 9.782-3.964l128.107-123.139 81.778 78.511c5.134 5.026 14.34 5.026 19.474 0l135.155-129.917h40.098c7.672 0 13.858-5.9 13.858-13.229v-219.68l0.050-0.14v-89.207c-0.003-0.14-0.053-0.14-0.053-0.14v0zM351.396 766.009l-152.284-146.468h304.467l-152.183 146.468zM580.799 721.38l-71.899-69.245 33.814-32.595h143.934l-105.85 101.84zM752.023 373.214h-249.787v-62.697h249.786v62.697h0.001zM752.023 283.957h-263.599c-7.578 0-13.768 5.947-13.768 13.326v89.207c0 7.286 6.191 13.28 13.768 13.28h263.599v193.219h-682.456c-0.047 0-0.047 0-0.097 0-0.092 0-0.142 0.134-0.239 0.134-7.19 0-13.859 1.522-20.286 3.83-1.868 0.596-3.548 1.427-5.326 2.257-2.204 1.060-4.554 1.661-6.615 2.95v-435.534c0-17.332 14.676-31.348 32.564-31.348h682.455v148.678zM765.881 682.241h-92.274c-7.677 0-13.863 5.946-13.863 13.277 0 7.287 6.185 13.28 13.863 13.28h92.274c7.63 0 13.816-5.993 13.816-13.28 0-7.331-6.185-13.277-13.816-13.277v0z" />
<glyph unicode="&#xe925;" glyph-name="icon-edit-square" horiz-adv-x="791" d="M724.11 681.018l27.214-27.136-375.954-377.025c-3.112-3.125-7.215-5.086-11.598-5.545l-137.067-14.375c-0.676-0.065-1.342-0.101-2.009-0.101-5.114 0-10.041 2.035-13.67 5.712-4.104 4.149-6.103 9.945-5.416 15.745l15.952 135.839c0.511 4.278 2.429 8.266 5.482 11.326l375.941 377.032 27.212-27.132-371.243-372.316-12.364-105.375 106.385 11.153 371.135 372.197zM663.546 593.148l-122.195 122.546 27.214 27.135 122.196-122.545-27.215-27.136zM751.324 653.882l-27.214 27.136c25.926 26.007 25.926 68.331 0 94.339-25.091 25.163-68.82 25.163-93.913 0l-27.212 27.132c19.805 19.863 46.147 30.804 74.169 30.804s54.361-10.941 74.169-30.804c40.857-40.972 40.857-107.634 0.001-148.607v0zM570.62 64.681h-422.796c-74.178 0-134.524 60.34-134.524 134.509v422.735c0 74.169 60.346 134.507 134.524 134.507h283.917v-38.43h-283.917c-52.979 0-96.092-43.101-96.092-96.079v-422.734c0-52.975 43.113-96.078 96.092-96.078h422.796c52.98 0 108.218 43.102 108.218 96.078v288.229h38.015v-288.229c0-74.169-72.052-134.509-146.233-134.509v0z" />
<glyph unicode="&#xe926;" glyph-name="close-thin2" horiz-adv-x="791" d="M756.886 58.843l-747.859 747.852 27.832 27.832 747.852-747.857-27.825-27.826zM36.859 58.843l-27.832 27.826 747.859 747.857 27.825-27.832-747.852-747.852z" />
<glyph unicode="&#xe927;" glyph-name="noted" horiz-adv-x="791" d="M298.343 462.226h-123.238c-13.603 0-24.646 11.034-24.646 24.645 0 13.609 11.043 24.645 24.646 24.645h123.238c13.611 0 24.645-11.035 24.645-24.645 0-13.611-11.034-24.645-24.645-24.645v0zM396.929 363.632h-221.824c-13.603 0-24.646 11.043-24.646 24.65 0 13.611 11.043 24.647 24.646 24.647h221.824c13.615 0 24.647-11.035 24.647-24.647 0-13.607-11.033-24.65-24.647-24.65v0zM396.929 265.047h-221.824c-13.603 0-24.646 11.043-24.646 24.65 0 13.611 11.043 24.647 24.646 24.647h221.824c13.615 0 24.647-11.035 24.647-24.647 0-13.607-11.033-24.65-24.647-24.65v0zM668.041 67.883h-542.225c-67.942 0-123.23 55.28-123.23 123.228v418.991c0 67.947 55.288 123.232 123.23 123.232h295.759c13.622 0 24.643-11.036 24.643-24.646s-11.020-24.645-24.643-24.645h-295.759c-40.77 0-73.941-33.166-73.941-73.941v-418.991c0-40.774 33.173-73.94 73.941-73.94h542.224c40.769 0 73.936 33.165 73.936 73.94v418.991c0 40.775-33.166 73.941-73.936 73.941-13.622 0-24.65 11.034-24.65 24.645 0 13.608 11.027 24.646 24.65 24.646 67.943 0 123.233-55.283 123.233-123.232v-418.991c0-67.947-55.29-123.228-123.232-123.228v0zM543.801 265.047c-13.622 0-24.647 11.043-24.647 24.65v49.289c0 13.609 11.024 24.647 24.647 24.647 13.615 0 24.643-11.036 24.643-24.647v-49.289c-0.001-13.607-11.029-24.65-24.643-24.65v0zM616.891 411.72l-13.528-32.827-9.263-27.521v-4.203c0-18.096-14.756-32.826-32.882-32.826h-24.647c-18.098 0-32.827 14.73-32.827 32.826v3.358l-11 26.756-18.457 31.31c-2.247 3.796-3.421 8.117-3.421 12.522v361.515c0 40.767 33.166 73.94 73.936 73.94 40.776 0 73.943-33.171 73.943-73.94v-361.515c0.003-3.223-0.627-6.412-1.854-9.393v0zM569.451 782.628c0 13.589-11.044 24.645-24.647 24.645-13.595 0-24.643-11.056-24.643-24.645v-354.789l15.925-27.044c0.609-1.002 1.142-2.058 1.572-3.141l11.020-26.764 8.542 25.287 12.229 29.794v356.656h0.003z" />
<glyph unicode="&#xe928;" glyph-name="pencil" horiz-adv-x="791" d="M764.932 668.379l-46.951-46.876-156.826 156.609 46.917 46.895c20.059 20.020 52.894 20.020 72.908 0l83.954-83.823c20.065-20.018 20.065-52.785-0.001-72.804v0zM284.747 188.751l-115.761-48.719-89.84 89.714 48.821 115.662 396.751 396.313 156.826-156.655-396.796-396.314zM13.71 74.681l43.825 103.843 60.199-60.073-104.024-43.77z" />
<glyph unicode="&#xe929;" glyph-name="error" horiz-adv-x="791" d="M785.089 136.595c-8.836-15.285-25.687-24.054-46.249-24.054h-684.139c-20.561 0-37.416 8.767-46.253 24.054-8.836 15.298-8.015 34.267 2.263 52.065l342.073 591.963c10.276 17.791 26.307 27.993 43.983 27.993s33.705-10.204 43.992-27.993l342.064-591.963c10.285-17.798 11.106-36.767 2.268-52.065v0zM396.837 741.906l-330.606-571.877 661-0.137-330.394 572.014zM366.586 341.929v229.389h57.401v-229.389h-57.401zM366.586 246.355v57.344h57.401v-57.344h-57.401z" />
<glyph unicode="&#xe92a;" glyph-name="more" horiz-adv-x="791" d="M703.849 63.89h-205.493c-45.397 0-82.198 36.817-82.198 82.223v205.558c0 45.404 36.801 82.217 82.198 82.217h205.493c45.396 0 82.202-36.814 82.202-82.217v-205.558c0-45.405-36.806-82.223-82.202-82.223v0zM744.954 351.67c0 22.703-18.407 41.104-41.105 41.104h-205.493c-22.696 0-41.094-18.401-41.094-41.104v-205.558c0-22.703 18.398-41.104 41.094-41.104h205.493c22.697 0 41.105 18.401 41.105 41.104v205.558zM703.849 474.994h-205.493c-45.397 0-82.198 36.811-82.198 82.221v205.554c0 45.405 36.801 82.215 82.198 82.215h205.493c45.396 0 82.202-36.81 82.202-82.215v-205.554c0-45.41-36.806-82.221-82.202-82.221v0zM744.954 762.769c0 22.703-18.407 41.106-41.105 41.106h-205.493c-22.696 0-41.094-18.405-41.094-41.106v-205.554c0-22.703 18.398-41.109 41.094-41.109h205.493c22.697 0 41.105 18.406 41.105 41.109v205.554zM292.863 63.89h-205.494c-45.396 0-82.203 36.817-82.203 82.223v205.558c0 45.404 36.806 82.217 82.203 82.217h205.494c45.396 0 82.197-36.814 82.197-82.217v-205.558c0-45.405-36.801-82.223-82.197-82.223v0zM333.961 351.67c0 22.703-18.401 41.104-41.098 41.104h-205.494c-22.699 0-41.1-18.401-41.1-41.104v-205.558c0-22.703 18.4-41.104 41.1-41.104h205.494c22.697 0 41.098 18.401 41.098 41.104v205.558zM292.863 474.994h-205.494c-45.396 0-82.203 36.811-82.203 82.221v205.554c0 45.405 36.806 82.215 82.203 82.215h205.494c45.396 0 82.197-36.81 82.197-82.215v-205.554c0-45.41-36.801-82.221-82.197-82.221v0zM333.961 762.769c0 22.703-18.401 41.106-41.098 41.106h-205.494c-22.699 0-41.1-18.405-41.1-41.106v-205.554c0-22.703 18.4-41.109 41.1-41.109h205.494c22.697 0 41.098 18.406 41.098 41.109v205.554z" />
<glyph unicode="&#xe92b;" glyph-name="news" horiz-adv-x="791" d="M663.401 67.868h-534.223c-13.413 0-24.29 10.874-24.29 24.277 0 13.412 10.877 24.288 24.29 24.288h534.223c40.17 0 72.845 32.674 72.845 72.845 0 13.408 10.876 24.281 24.286 24.281s24.279-10.874 24.279-24.281c0-66.941-54.469-121.41-121.41-121.41v0zM736.244 189.28v582.788c0 13.383-10.89 24.28-24.279 24.28h-437.093c-13.388 0-24.28-10.897-24.28-24.28v-582.788h-48.569v582.788c0 40.167 32.676 72.849 72.849 72.849h437.093c40.17 0 72.845-32.681 72.845-72.849v-582.788h-48.566zM129.178 67.868c-66.948 0-121.419 54.469-121.419 121.41 0 13.408 10.877 24.281 24.284 24.281 13.413 0 24.28-10.874 24.28-24.281 0-40.17 32.681-72.845 72.855-72.845 40.169 0 72.846 32.674 72.846 72.845 0 13.408 10.871 24.281 24.284 24.281 13.409 0 24.285-10.874 24.285-24.281 0-66.941-54.476-121.41-121.415-121.41v0zM80.608 553.52c-13.386 0-24.285-10.894-24.285-24.285v-339.956h-48.564v339.958c0 40.173 32.681 72.855 72.849 72.855h157.841v-48.57l-157.841-0.001zM663.401 480.675h-339.962c-13.408 0-24.281 10.874-24.281 24.281s10.874 24.28 24.281 24.28h339.962c13.41 0 24.279-10.874 24.279-24.28 0-13.408-10.868-24.281-24.279-24.281v0zM493.421 577.801h-169.981c-13.408 0-24.281 10.877-24.281 24.29 0 13.404 10.874 24.28 24.281 24.28h169.981c13.41 0 24.279-10.877 24.279-24.28 0-13.413-10.868-24.29-24.279-24.29v0zM663.401 383.541h-339.962c-13.408 0-24.281 10.879-24.281 24.284 0 13.41 10.874 24.279 24.281 24.279h339.962c13.41 0 24.279-10.868 24.279-24.279 0-13.405-10.868-24.284-24.279-24.284v0zM663.401 286.411h-339.962c-13.408 0-24.281 10.877-24.281 24.281 0 13.412 10.874 24.284 24.281 24.284h339.962c13.41 0 24.279-10.872 24.279-24.284 0-13.404-10.868-24.281-24.279-24.281v0z" />
<glyph unicode="&#xe92c;" glyph-name="order" horiz-adv-x="791" d="M783.859-25.367v895.758c0 26.783-21.093 41.014-47.010 41.014h-680.948c-25.913 0-47.004-14.231-47.004-41.014v-895.758h29.24v15.889c51.141 47.077 113.59 89.872 128.829 89.872h0.129c11.325 0 42.881-40.355 58.058-60.73 27.878-37.448 41.966-54.022 57.578-54.022 13.905 0 26.625 15.25 62.385 60.214 15.55 19.565 40.823 51.712 51.759 58.945 6.674-5.77 19.455-27.693 29.043-41.462 27.459-39.381 55.862-68.705 87.18-83.817 0.044 0 0.1 0 0.1 0 31.889 0 62.388 47.319 89.301 85.738 9.054 12.928 21.063 31.951 27.445 37.875 17.246-8.767 74.919-51.655 124.668-93.083v-15.418h29.249zM626.428 116.202c-13.75-1.888-25.154-21.159-47.619-53.221-18.213-25.985-48.671-73.241-65.555-73.241h-0.043c-16.423 15.101-45.922 46.169-63.555 71.458-23.534 33.745-35.514 51.909-50.507 53.194-17.135 1.842-35.826-18.267-76.637-69.573-12.707-16.012-31.171-38.748-40.055-46.415-7.866 6.794-22.832 24.27-34.124 39.455-33.575 45.087-57.303 72.753-80.394 72.753-0.215 0-0.423 0-0.64 0-27.81 0-90.61-45.819-129.16-79.943v839.721c0 10.121 7.97 10.801 17.765 10.801h680.947c9.799 0 17.761-0.68 17.761-10.801v-841.573c-109.254 89.886-121.994 88.187-128.184 87.384v0zM169.737 745.206h453.279v-30.217h-453.279v30.217zM169.737 609.226h453.279v-30.222h-453.279v30.222zM169.737 488.347h453.279v-30.224h-453.279v30.224z" />
<glyph unicode="&#xe92d;" glyph-name="edit-sale" horiz-adv-x="819" d="M554.165 401.963v-96.495h34.133v96.495h96.495v34.133h-96.495v96.495h-34.133v-96.495h-96.495v-34.133h96.495zM596.166 668.901h61.86l0.939 16.060c0.154 2.679 3.499 65.929-28.587 99.959-13.244 14.046-30.993 21.47-51.285 21.47v-17.065h-0.003v17.075h-379.307c-34.884 0-63.249-28.382-63.249-63.266v-325.154c0-11.503 5.888-21.914 15.753-27.836 9.847-5.922 21.811-6.229 31.966-0.802l21.743 12.407 38.673-20.599c4.796-2.56 10.035-3.84 15.292-3.84s10.479 1.28 15.275 3.823l37.137 20.617 38.69-20.617c9.557-5.103 20.992-5.103 30.566 0.017l-14.524 30.106-38.673 20.617c-9.54 5.086-20.975 5.086-30.532 0l-37.154-20.617-38.69 20.599c-9.557 5.12-20.992 5.12-30.566 0.017l-20.821-11.11v322.372c0 16.060 13.056 29.133 29.116 29.133h362.25v-150.827h34.133v47.461zM596.166 703.034v65.522c3.435-1.721 6.532-4.050 9.329-7 13.397-14.182 18.005-40.107 19.2-58.522h-28.529zM240.121 663.305h252.433v34.133h-252.433v-34.133zM240.121 587.307h252.433v34.133h-252.433v-34.133zM240.121 511.326h178.074v34.133h-178.074v-34.133z" />
<glyph unicode="&#xe92e;" glyph-name="nav-sellscreen" horiz-adv-x="1122" d="M1064.093 665.766c-45.913 0-90.534 0-135.154 0-20.047 0-40.093 0.323-60.14 0.97-13.58 0.647-23.603 11.64-23.603 24.573 0.323 12.933 10.67 23.28 24.573 23.28 75.337 0 150.674-0.323 226.011-0.647 19.723 0 30.393-14.873 23.927-33.303-38.153-109.934-76.63-219.867-115.107-329.478-4.85-13.903-11.963-18.107-29.1-18.107-215.664 0-431.328 0-646.992 0.323-10.67 0-14.55-2.91-17.137-12.933-7.437-27.807-16.167-55.614-24.573-83.097-0.97-3.557-1.94-7.437-3.233-12.287 5.173 0 9.377 0 13.58 0 210.814 0 421.628 0 632.119 0 16.813 0 27.16-7.437 28.453-21.017 1.293-13.257-7.76-24.897-21.017-26.19-2.91-0.323-5.82-0.323-8.73-0.323-223.101 0-446.525 0-669.625 0-25.22 0-34.597 12.61-27.483 36.86 13.257 44.62 26.837 89.564 39.77 134.184 1.617 5.497 1.94 11.64 0.323 17.137-46.56 179.451-93.767 358.901-140.65 538.028-0.647 2.91-1.617 5.497-2.587 8.73-34.273 0-68.224 0-101.85 0-13.58 0-23.603 8.083-25.543 20.047-2.263 13.58 8.083 27.16 21.987 27.16 41.71 0.323 83.744 0.323 125.454 0 11.317 0 19.077-7.437 22.31-20.047 18.753-71.78 37.83-143.56 56.26-215.664 1.94-7.437 4.85-9.7 12.61-9.7 84.714 0.323 169.104 0.323 253.817 0.647 9.7 0 17.46-2.587 22.957-10.67 4.85-7.437 5.497-15.52 1.617-23.28-4.85-9.377-12.933-13.903-23.28-13.903-27.483 0-55.29 0-82.774 0-53.997 0-107.994 0-161.991 0-1.94 0-3.88-0.323-7.437-0.647 24.897-95.384 49.793-190.121 74.69-285.504 4.203 0 8.083 0 11.64 0 208.551 0 416.778 0 625.329-0.323 9.053 0 12.933 2.587 15.843 11.317 30.393 88.27 61.434 176.217 92.15 264.488 0.323 2.263 1.293 5.497 2.587 9.377zM664.129 466.592c-7.437 4.203-14.873 6.79-20.047 11.64-31.363 30.717-62.080 61.757-92.797 93.12-11.963 12.287-12.287 29.747-1.617 39.77 10.993 10.023 26.513 9.053 39.123-2.91 10.993-10.67 21.34-21.663 32.333-32.010 2.91-2.587 6.79-3.88 10.347-5.82 1.94 4.203 5.497 8.083 5.82 12.61 5.497 68.87 26.513 132.567 63.050 191.091 51.733 83.097 125.13 139.357 216.957 172.014 15.843 5.82 29.747 0 34.92-14.227 5.497-14.873-1.293-28.453-17.46-34.273-93.12-33.627-162.314-94.737-207.904-182.037-22.31-42.68-34.273-88.27-37.183-136.124-0.323-4.203 2.587-8.73 4.203-12.933 3.88 1.94 8.083 2.91 10.993 5.82 12.61 11.963 24.573 24.897 37.183 36.86 8.083 7.76 17.783 10.993 29.1 6.79 10.023-3.88 16.167-11.64 15.843-21.663-0.323-7.437-3.233-16.813-8.083-22.31-30.717-32.010-62.080-63.697-93.767-94.737-5.82-4.527-13.58-6.79-21.017-10.67zM398.025-64c-53.997 0-98.294 43.65-98.294 97.647s43.973 97.97 97.97 97.97c53.674 0 97.324-43.65 97.647-97 0.323-53.997-43.327-98.294-97.324-98.617zM448.141 33.647c0.323 27.807-22.31 50.44-49.793 50.763-27.807 0.323-50.763-21.987-51.087-49.47-0.323-28.13 22.31-51.087 50.117-51.41 27.807 0 50.44 22.31 50.763 50.117zM710.689 34.294c0 53.997 44.297 97.647 98.294 97.324 53.35-0.323 97.324-44.297 97.324-97.647 0-53.997-43.973-97.97-97.97-97.97s-97.647 43.973-97.647 98.294zM758.219 33.97c0-27.807 22.31-50.44 49.793-50.44 28.13-0.323 51.087 22.633 50.763 50.763 0 27.483-22.957 50.117-50.44 50.117s-50.117-22.633-50.117-50.44z" />
<glyph unicode="&#xe92f;" glyph-name="nav-shift" horiz-adv-x="1118" d="M57.010 316.771c12.351 6.552 22.669 11.974 32.911 17.547 18.15 9.79 36.224 9.79 54.374 0.075 18.752-10.016 37.354-20.259 56.332-29.672 3.54-1.732 9.564-1.732 13.104 0.075 17.849 9.188 35.321 19.204 52.868 28.995 18.376 10.242 36.827 10.468 55.353 0.527 7.682-4.142 15.363-8.209 23.045-12.351 43.756-23.346 43.756-23.346 63.261-71.244-16.493-9.188-32.986-8.811-49.404-0.452-19.28 9.79-38.333 19.882-57.236 30.501-6.1 3.389-10.619 3.238-16.493-0.226-16.644-9.79-33.815-18.752-50.609-28.317-18.752-10.544-37.354-10.694-56.332-0.452-17.623 9.64-35.697 18.526-53.094 28.543-6.929 3.991-12.125 3.615-18.526-0.527-8.962-5.724-18.225-10.995-27.639-15.74-36.224-18.451-78.624 6.778-78.7 47.521-0.226 181.725-0.377 363.525 0.151 545.325 0.151 54.525 43.379 98.732 97.904 102.498 6.778 0.452 13.631 0.602 20.485 0.602 200.025 0 400.051 0 600.076 0 82.239 0 125.317-33.815 144.069-114.322 4.293-18.376 6.703-37.354 8.058-56.182s0.301-37.881 0.301-58.441c-35.17 0-69.060 0-104.155 0 0-27.187 0-52.793 0-79.076-19.28 0-37.279 0-56.634 0 0 83.143 0 165.985 0 250.107-5.196 0.377-9.188 0.904-13.179 0.904-195.13 0.075-390.185 0.075-585.315 0-35.773 0-54.977-19.204-54.977-54.676 0-172.688 0-345.375 0-518.138 0-3.766 0-7.531 0-13.405zM814.937 788.292c-5.799 40.894-9.113 80.884-46.919 108.598 0-37.957 0-73.202 0-108.598 15.589 0 30.2 0 46.919 0zM799.122 573.355c174.872 0.151 318.489-143.919 318.564-318.564 0.075-176.302-144.823-319.318-320.221-318.79-175.323 0.527-318.037 145.35-317.887 319.016 0.151 174.57 143.994 319.167 319.543 318.338zM1070.467 255.543c-0.075 149.040-121.627 270.29-271.194 270.441-150.094 0.226-272.474-121.024-272.625-270.064-0.151-149.718 122.38-271.947 272.55-271.796 149.944 0.151 271.345 121.627 271.269 271.42zM173.667 777.748c140.455 0 279.779 0 419.857 0 0-18.602 0-36.601 0-55.429-139.927 0-279.629 0-419.857 0 0 18.376 0 36.375 0 55.429zM173.591 595.044c0 19.054 0 37.128 0 55.73 140.078 0 279.553 0 419.857 0 0-18.451 0-36.827 0-55.73-139.927 0-279.403 0-419.857 0zM469.111 523.65c0-18.752 0-36.752 0-55.429-98.657 0-196.712 0-295.444 0 0 18.526 0 36.601 0 55.429 98.205 0 196.26 0 295.444 0zM817.95 334.243c0-29.221 0.226-58.441-0.151-87.662-0.151-7.832 2.033-13.405 7.682-18.903 31.631-31.103 63.035-62.508 94.289-94.063 14.836-14.912 9.263-36.827-10.92-41.044-5.95-1.28-14.987 1.13-19.28 5.347-38.107 36.978-75.687 74.558-112.74 112.59-4.142 4.217-5.95 12.351-6.025 18.752-0.452 65.219-0.301 130.513-0.226 195.733 0 16.116 9.414 26.359 23.422 26.434 14.158 0.075 23.949-10.92 23.949-27.187 0-30.049 0-60.023 0-89.996z" />
<glyph unicode="&#xe930;" glyph-name="nav-orderlist" horiz-adv-x="1031" d="M189.941 128.525c7.753 0 12.921 0 17.767 0 135.672 0 271.344 0 407.016 0 4.199 0 8.399 0.323 12.921-0.323 9.045-0.646 14.213-6.138 14.536-14.859 0.323-9.691-5.168-14.859-14.536-16.151-2.907-0.323-5.815-0.323-9.045-0.323-147.301 0-294.279 0-441.58 0-22.289 0-27.457 7.107-21.32 28.426 8.076 26.811 16.474 53.946 23.904 80.757 1.938 6.461 2.261 14.536 0.646 20.997-30.365 116.29-61.052 232.58-91.094 348.871-2.261 8.722-5.815 12.598-15.505 12.275-17.444-0.969-34.887-0.323-52.331-0.323-14.213 0-21.643 5.815-21.32 16.151 0.323 10.014 7.43 15.182 20.997 15.182 23.904 0 47.808-0.323 71.712 0.323 12.921 0.323 19.382-5.168 22.612-17.444 11.629-44.901 23.581-89.802 35.21-134.703 0.969-3.553 2.261-7.43 3.23-11.629 41.994 0 83.987 0 125.658 0 150.854 0 302.032 0 452.886-0.323 16.797 0 23.258-9.045 17.444-25.196-24.873-71.712-50.392-143.102-74.943-214.814-4.522-12.598-13.244-14.859-24.873-14.859-140.194 0.323-280.712 0-420.906 0.323-13.567 0-19.705-3.553-22.612-16.797-4.199-18.090-10.66-35.533-16.474-55.561zM162.806 423.127c0.323-3.23 0.323-4.845 0.646-6.461 15.182-58.468 31.011-116.936 45.87-175.727 1.938-8.076 6.461-8.399 12.921-8.399 138.256 0 276.512 0 414.445 0 7.753 0 10.983 2.907 13.567 10.014 15.828 46.193 32.303 92.386 48.454 138.579 4.845 13.567 9.368 27.134 14.859 41.994-184.126 0-366.96 0-550.763 0zM739.412 926.728c0-37.794 0-73.974 0-110.153 0-23.904-11.629-35.533-35.856-35.856-33.595 0-67.513 0-101.108 0-4.199 0-8.399 0-14.213 0 0-15.828 0-30.688 0-45.547 0-53.623 0-107.568 0-161.191 0-3.553 0.323-6.784 0-10.337-1.292-10.66-8.722-18.413-18.413-17.444-10.983 0.969-17.121 7.107-17.121 18.413 0 30.688 0 61.375 0 92.063 0 41.348-0.323 82.695-0.646 124.043 0 14.859 5.168 27.457 15.505 37.794 42.317 42.64 84.956 84.956 127.919 127.273 9.368 9.368 20.674 13.89 34.564 13.89 82.695 0 166.36 0.323 249.701 0.323 28.75 0 51.038-22.289 51.038-50.715 0-166.36 0-332.719 0-499.079 0-28.103-22.612-51.685-50.715-51.685-49.746-0.323-99.816 0-149.885 0-12.275 0-19.382 6.461-19.705 17.121s6.138 16.151 19.382 16.151c44.901 0 89.479 0 134.38 0 24.227 0 32.949 8.722 32.949 32.626 0 156.669 0 313.015 0 469.683 0 25.196-7.43 32.626-32.949 32.626-70.097 0-139.871 0-209.968 0-3.876 0-8.399 0-14.859 0zM613.754 814.637c30.365 0 62.344 0 93.032 0 0 31.657 0 62.668 0 94.001-31.98-32.303-62.668-63.314-93.032-94.001zM542.688-64c-36.502-0.323-66.221 29.396-66.221 65.252 0 35.533 29.396 64.929 65.252 65.252 36.502 0.323 66.221-29.073 66.221-65.252-0.323-35.533-29.719-64.929-65.252-65.252zM508.447 1.252c0-18.413 14.536-33.272 32.949-33.595s34.241 15.182 34.241 33.918c0 18.090-14.859 33.272-32.949 33.595-18.736 0.323-34.241-15.182-34.241-33.918zM201.247 1.575c0 35.856 28.75 64.929 64.929 64.929 36.502 0.323 66.221-29.396 65.898-65.575 0-36.179-30.042-65.252-66.544-64.929-35.856 0.323-64.283 29.396-64.283 65.575zM300.093 0.929c0 18.736-15.505 34.241-34.241 33.918-18.090-0.323-33.272-15.505-33.272-33.595 0-18.413 15.828-34.241 34.241-33.918 18.413 0.646 33.272 15.505 33.272 33.595zM795.619 716.76c-38.763 0-77.527 0-116.29 0-13.244 0-19.382 5.168-19.705 16.151-0.323 11.306 6.461 17.121 20.028 17.121 77.527 0 155.054 0 232.58 0 12.921 0 19.705-5.491 19.705-16.151 0.323-10.983-6.784-17.121-20.028-17.121-38.763 0-77.527 0-116.29 0zM794.65 632.126c-38.763 0-77.527 0.323-116.29-0.323-11.306 0-18.413 3.23-18.736 15.182-0.646 11.306 6.784 18.090 19.705 18.090 52.977 0 105.63 0 158.607 0 25.196 0 50.392 0 75.266 0 13.89 0 23.258-11.952 17.444-23.581-2.261-4.522-10.337-9.045-15.505-9.045-40.379-0.646-80.434-0.323-120.49-0.323zM794.65 545.232c-38.44 0-76.558 0-114.998 0-14.213 0-19.705 4.199-20.028 15.182-0.323 11.629 7.107 18.090 20.997 18.090 54.592 0 109.184 0 163.775 0 22.935 0 45.87 0 69.128 0 13.567 0 21.643-10.66 18.090-22.612-2.261-8.399-8.076-10.66-16.474-10.66-40.379 0-80.434 0-120.49 0z" />
<glyph unicode="&#xe931;" glyph-name="nav-setting" d="M455.128 959.981c-50.023 0-91.016-40.992-91.016-91.016v-27.746c-8.63-3.211-17.21-6.523-25.589-10.336l-19.568 19.568c-35.423 35.423-93.324 35.423-128.696 0l-80.379-80.328c-35.423-35.423-35.423-93.675 0-129.047l19.568-19.568c-3.813-8.479-7.426-16.909-10.687-25.589h-27.746c-50.023 0-91.016-40.992-91.016-91.066v-113.795c0-50.023 40.992-91.016 91.016-91.016h27.746c3.211-8.58 6.924-16.858 10.687-25.237l-19.568-19.568c-35.423-35.423-35.423-93.675 0-129.047l80.379-80.379c35.423-35.423 93.324-35.423 128.696 0l19.568 19.568c8.379-3.763 16.959-7.125 25.589-10.336v-28.097c0-50.023 40.992-91.016 91.016-91.016h113.795c50.023 0 91.016 40.992 91.016 91.016v28.097c8.63 3.211 17.21 6.523 25.589 10.336l19.568-19.568c35.423-35.423 93.324-35.423 128.696 0l80.379 80.379c35.423 35.423 35.423 93.675 0 129.047l-19.568 19.568c3.763 8.379 7.476 16.658 10.687 25.237h27.746c50.023 0 91.016 40.992 91.016 91.016v113.795c0 50.023-40.992 91.016-91.016 91.016h-27.746c-3.211 8.68-6.874 17.109-10.687 25.589l19.568 19.568c35.423 35.423 35.423 93.675 0 129.047l-80.379 80.379c-35.423 35.423-93.324 35.423-128.696 0l-19.568-19.568c-8.379 3.763-16.959 7.125-25.589 10.336v27.746c0 50.023-40.992 91.016-91.016 91.016h-113.795zM455.128 914.473h113.795c25.589 0 45.508-19.919 45.508-45.508v-42.999c0.1-9.734 6.422-18.313 15.654-21.324 17.561-5.82 34.469-12.895 50.475-20.973 8.78-4.415 19.367-2.659 26.291 4.265l30.205 30.205c18.063 18.063 46.662 18.063 64.724 0l80.379-80.379c18.063-18.063 18.063-46.26 0-64.373l-30.205-30.205c-6.924-6.924-8.68-17.561-4.265-26.291 8.078-16.056 14.801-33.265 20.621-50.826 3.061-9.383 11.841-15.654 21.675-15.654h42.999c25.589 0 45.508-19.919 45.508-45.508v-113.795c0-25.589-19.919-45.508-45.508-45.508h-42.999c-9.784 0.1-18.464-6.071-21.675-15.303-5.82-17.561-12.543-34.821-20.621-50.826-4.415-8.78-2.659-19.367 4.265-26.291l30.205-30.205c18.063-18.063 18.063-46.311 0-64.373l-80.379-80.379c-18.063-18.063-46.662-18.063-64.724 0l-30.205 30.205c-6.924 6.924-17.561 8.68-26.291 4.265-16.056-8.078-32.914-15.153-50.475-20.973-9.383-3.061-15.654-11.841-15.654-21.675v-42.999c0-25.589-19.919-45.508-45.508-45.508h-113.795c-25.589 0-45.508 19.919-45.508 45.508v42.999c0.050 9.834-6.272 18.615-15.654 21.675-17.561 5.82-34.469 12.895-50.475 20.973-8.78 4.415-19.367 2.659-26.291-4.265l-30.205-30.205c-18.063-18.063-46.662-18.063-64.724 0l-80.379 80.379c-18.063 18.063-18.063 46.26 0 64.373l30.205 30.205c6.924 6.924 8.68 17.561 4.265 26.291-8.078 16.056-14.801 33.265-20.621 50.826-3.211 9.232-11.941 15.353-21.675 15.303h-42.999c-25.589 0-45.508 19.919-45.508 45.508v113.795c0 25.589 19.919 45.508 45.508 45.508h42.999c9.834-0.050 18.615 6.272 21.675 15.654 5.82 17.561 12.543 34.821 20.621 50.826 4.415 8.78 2.659 19.367-4.265 26.291l-30.205 30.205c-18.063 18.063-18.063 46.26 0 64.373l80.379 80.379c18.063 18.063 46.662 18.063 64.724 0l30.205-30.205c6.924-6.924 17.561-8.68 26.291-4.265 16.056 8.078 32.914 15.153 50.475 20.973 9.232 3.061 15.504 11.59 15.654 21.324v42.999c0 25.639 19.919 45.508 45.508 45.508zM512.025 698.324c-137.978 0-250.318-112.339-250.318-250.318s112.339-250.318 250.318-250.318c137.978 0 250.318 112.339 250.318 250.318s-112.339 250.318-250.318 250.318zM512.025 652.816c113.393 0 204.81-91.417 204.81-204.81s-91.417-204.81-204.81-204.81c-113.393 0-204.81 91.417-204.81 204.81 0 113.343 91.417 204.81 204.81 204.81z" />
<glyph unicode="&#xe932;" glyph-name="nav-outlet" horiz-adv-x="1143" d="M869.725 455.714c19.284-1.928 37.605-1.607 55.282-5.464 25.070-5.785 49.497-14.785 73.923-23.141 6.107-1.928 9.642-3.214 14.142 2.25 5.142 5.785 10.606 11.249 16.392 16.392 10.928 9.642 25.070 5.464 28.284-8.678 8.357-35.033 16.713-69.745 25.070-104.778 3.535-15.749-6.107-25.070-21.856-21.534-33.748 8.035-67.817 15.749-101.564 24.748-6.107 1.607-14.463 7.071-15.749 12.535-1.607 5.464 3.214 13.499 7.071 18.963 2.893 4.178 8.999 6.428 12.535 10.928-28.284 14.463-56.246 18.963-84.851 18.32-92.565-2.571-170.345-66.531-190.915-156.525-5.785-25.070-6.107-50.782-1.928-76.173 3.214-19.606-18.32-43.711-38.247-42.426-9.321 0.643-13.499 6.75-15.749 14.785-1.286 4.821-2.25 9.964-3.535 16.070-201.522 0-402.722 0-604.886 0 0 14.142 0 27.32 0 41.783 21.213 0 42.426 0 65.245 0 0 4.821 0 8.357 0 12.213 0 109.921 0 219.52 0.321 329.441 0 7.714-2.571 11.571-9.642 14.785-50.139 24.748-76.816 65.245-78.423 121.17-1.286 45.961-0.321 91.922 0 137.883 0 4.5 1.607 9.642 4.178 13.178 28.927 43.068 57.532 86.78 86.78 130.169 2.571 3.535 8.678 7.071 13.178 7.071 249.411 0.321 498.822 0.321 747.912 0.321 6.107 0 9.964-1.928 13.499-7.071 28.927-43.711 58.175-87.101 86.78-130.491 2.893-4.178 4.5-10.285 4.5-15.427 0.321-44.675 0.643-89.030 0-133.705-0.964-57.21-27.641-98.993-78.745-124.063-6.75-3.214-9.321-6.428-8.999-14.142 0.321-26.677 0-53.353 0-79.387zM727.985 670.734c0.643-5.142 1.286-8.999 1.928-13.178 8.035-46.604 45.64-79.066 91.922-79.066 46.604-0.321 86.137 32.462 92.565 79.709 3.214 24.105 1.286 48.854 1.286 73.281 0 17.356 0 34.712 0 52.389-291.515 0-581.745 0-873.261 0 0-38.569-0.321-76.173 0-114.099 0.643-44.675 33.748-82.923 77.459-90.315 44.997-7.392 89.351 18.32 104.136 61.389 3.214 9.321 4.5 19.284 6.75 29.569 12.856 0 26.034 0 39.212 0 14.785-61.71 42.747-89.994 90.637-91.922 21.213-0.964 40.497 4.5 57.532 16.713 26.034 18.32 38.247 44.354 40.497 75.53 14.142 0 26.998 0 39.533 0 16.713-63.96 44.354-90.958 92.886-92.244 21.213-0.321 40.176 5.464 57.21 17.999 24.748 18.32 36.962 43.711 38.569 74.245 14.463 0 27.641 0 41.14 0zM503.965 456.999c0-88.065 0-175.166 0-262.91 40.819 0 80.352 0 119.884 0 0.321 3.857 0.321 6.75 0.643 9.642 3.535 66.21 26.998 124.063 73.602 171.952 33.748 34.39 73.602 58.175 120.527 70.067 3.535 0.964 9.321 4.5 9.321 6.75 0.643 27.641 0.321 55.282 0.321 83.566-51.746 0-91.279 20.891-120.527 62.674-28.284-39.854-65.245-62.031-113.778-62.353-48.854-0.321-86.458 22.177-115.063 62.031-28.605-39.533-65.888-62.031-114.421-62.031-48.854 0-86.137 22.498-114.742 62.353-14.142-20.249-30.855-36.319-52.068-47.247s-43.711-15.749-67.495-15.427c0-114.742 0-228.52 0-341.976 34.069 0 67.174 0 101.564 0 0 88.065 0 175.488 0 262.589 91.601 0.321 181.273 0.321 272.231 0.321zM899.937 826.938c-13.178 19.606-25.070 37.605-37.283 55.925-7.714 11.571-13.499 27.641-24.748 33.426-10.928 5.785-27.641 1.928-41.461 1.928-222.092 0-444.505 0-666.596 0.321-8.357 0-13.499-2.25-17.999-9.642-8.035-13.82-17.356-26.677-26.034-40.176-8.999-13.499-17.677-26.998-27.32-41.783 280.909 0 559.89 0 841.441 0zM274.159 194.411c62.674 0 124.706 0 186.737 0 0 73.923 0 147.525 0 221.127-62.674 0-124.384 0-186.737 0 0-74.245 0-147.204 0-221.127zM759.483-33.788c-6.107-7.071-12.213-14.463-18.963-21.213-11.249-10.928-25.712-6.75-29.569 8.357-8.357 34.069-16.392 68.46-24.427 102.529-4.178 17.999 5.142 27.32 22.82 23.141 33.748-8.035 67.817-16.070 101.564-24.105 17.677-4.178 21.534-18.32 8.357-31.176-4.5-4.5-9.642-8.035-16.392-13.178 30.855-13.499 59.46-17.999 89.030-16.392 97.386 5.464 173.238 72.959 189.308 168.738 2.571 15.427 1.928 31.819 1.607 47.568-0.643 20.57 22.498 42.747 42.747 38.247 5.142-1.286 11.571-7.714 12.535-12.856 7.392-29.891 5.464-60.424-0.321-90.315-24.427-123.42-132.098-210.842-257.446-209.557-41.461 0.643-81.316 10.285-120.849 30.212z" />
<glyph unicode="&#xe933;" glyph-name="more2" horiz-adv-x="3692" d="M512 960c-285.932 0-512-232.107-512-512 0-285.932 232.107-512 512-512s512 232.107 512 512c6.039 285.67-226.068 512-512 512zM512 54.942c-220.291 0-393.058 178.544-393.058 393.058 0 214.252 178.544 393.058 393.058 393.058s393.058-178.544 393.058-393.058c0-214.515-172.767-393.058-393.058-393.058zM1845.826 960c-285.932 0-512-232.107-512-512 0-285.932 232.107-512 512-512s512 232.107 512 512c0 285.67-226.33 512-512 512zM1845.826 54.942c-220.291 0-393.058 178.544-393.058 393.058 0 214.252 178.544 393.058 393.058 393.058 214.252 0 393.058-178.544 393.058-393.058s-172.767-393.058-393.058-393.058zM3179.651 960c-285.932 0-512-232.107-512-512 0-285.932 232.107-512 512-512s512 226.33 512 512c0 285.67-232.369 512-512 512zM3179.651 54.942c-220.291 0-393.058 178.544-393.058 393.058 0 214.252 178.544 393.058 393.058 393.058 214.252 0 393.058-178.544 393.058-393.058-0.263-214.515-178.806-393.058-393.058-393.058z" />
<glyph unicode="&#xe934;" glyph-name="add-wishlist" horiz-adv-x="1160" d="M1020.386 319.514h-78.474v78.474c0 9.984-8.132 18.116-18.116 18.116s-18.116-8.132-18.116-18.116v-78.474h-78.474c-9.984 0-18.116-8.132-18.116-18.116s8.132-18.116 18.116-18.116h78.474v-78.474c0-9.984 8.132-18.116 18.116-18.116s18.116 8.132 18.116 18.116v78.474h78.474c9.984 0 18.116 8.132 18.116 18.116s-8.087 18.116-18.116 18.116zM1159.262 631.919c0 3.524 0 7.003 0 10.617s0 5.195 0 7.861c-0.361 171.314-139.599 309.92-310.914 309.513-111.137-0.226-213.646-59.906-268.718-156.406-84.934 148.816-274.41 200.589-423.226 115.61-96.5-55.072-156.18-157.58-156.406-268.718 0-2.53 0-5.195 0-7.861s0-7.138 0-10.617c18.839-316.38 503.326-695.422 579.631-695.919 38.401 0 147.099 79.694 234.157 156.993 114.752-61.080 257.288-17.574 318.323 97.177 44.907 84.392 34.335 187.623-26.836 261.128 29.998 55.93 48.385 117.417 53.987 180.621zM579.631-27.767c-54.846 1.446-525.553 362.778-543.399 662.216 0 3.162 0 6.28 0 9.397 0 2.304 0 4.698 0 7.003-0.181 151.255 122.296 274.049 273.552 274.229 110.731 0.136 210.664-66.411 253.222-168.694 3.84-9.216 14.457-13.599 23.673-9.758 4.427 1.852 7.951 5.331 9.758 9.758 58.279 139.599 218.661 205.514 358.26 147.234 102.147-42.648 168.604-142.581 168.378-253.267 0-2.304 0-4.608 0-6.867 0-2.304 0-6.28 0-9.397-4.789-54.213-19.923-107.026-44.681-155.547-97.9 85.296-246.445 75.040-331.695-22.86-85.296-97.9-75.040-246.445 22.86-331.695 4.111-3.614 8.358-7.048 12.74-10.346-106.077-93.337-186.223-140.91-202.668-141.407zM923.796 102.164c-110.053 0-199.234 89.226-199.234 199.234s89.226 199.234 199.234 199.234c110.053 0 199.234-89.226 199.234-199.234-0.136-109.963-89.226-199.099-199.234-199.234z" />
<glyph unicode="&#xe935;" glyph-name="back-btn" horiz-adv-x="1704" d="M197.738 534.35c9.951 0 16.050 0 22.149 0 330.633 0 660.945-0.321 991.579 0 140.278 0.321 260.976-47.829 357.919-149.266 108.82-113.956 149.587-251.024 130.327-406.711-2.247-18.618-11.556-28.89-27.606-35.31-22.47-9.309-44.94-8.988-66.769 1.926-23.112 11.556-25.68 17.013-21.507 42.372 33.063 194.849-87.955 377.821-280.236 422.119-27.927 6.42-57.139 8.988-85.708 8.988-333.843 0.642-667.366 0.321-1001.209 0.321-4.494 0-9.309-0.321-17.334-0.963 6.099-6.42 10.272-10.914 14.445-15.087 101.437-101.437 202.874-202.553 303.669-304.311 9.951-9.951 17.655-24.717 20.544-38.199 5.457-26.001-7.383-48.471-28.569-59.065-22.791-11.235-49.755-7.383-68.374 10.593-34.347 33.705-68.053 68.053-102.079 102.079-105.289 104.968-210.578 209.936-315.546 315.225-31.137 31.137-31.137 64.201 0 95.338 138.031 138.352 276.705 276.705 415.057 415.057 17.334 17.334 36.915 25.359 60.991 17.655 22.149-7.062 36.273-22.47 40.446-45.582 3.852-22.47-5.457-40.125-21.186-55.855-102.4-102.079-204.158-204.158-306.237-306.237-4.173-3.852-8.025-8.346-14.766-15.087z" />
<glyph unicode="&#xe936;" glyph-name="save-cart" d="M89.576 959.979c-48.937 0-89.576-40.583-89.576-89.576v-844.792c0-48.993 40.639-89.576 89.576-89.576h844.792c48.993 0 89.576 40.639 89.576 89.576v691.208c0 10.216-4.007 19.981-11.176 27.206l-204.777 204.777c-7.225 7.168-16.99 11.232-27.206 11.176h-691.208zM89.576 883.215h102.389v-319.979c0-21.223 17.215-38.382 38.382-38.382h512c21.223 0 38.382 17.215 38.382 38.382v304.005l166.396-166.396v-675.178c0-7.733-5.023-12.813-12.813-12.813h-844.735c-7.733 0-12.813 5.023-12.813 12.813v844.735c0.056 7.733 5.080 12.813 12.813 12.813zM268.784 883.215h435.18v-281.597h-435.18v281.597zM512 435.222c-91.439 0-166.396-74.957-166.396-166.396s74.957-166.396 166.396-166.396c91.439 0 166.396 74.957 166.396 166.396s-74.957 166.396-166.396 166.396zM512 358.403c49.953 0 89.576-39.68 89.576-89.576 0-49.953-39.68-89.576-89.576-89.576-49.953 0-89.576 39.68-89.576 89.576-0.056 49.896 39.623 89.576 89.576 89.576z" />
<glyph unicode="&#xe937;" glyph-name="icon-reg" horiz-adv-x="992" d="M71.267 720.617c54.592 0 107.814 0 161.492 0 0 18.273 0 36.090 0 55.049-2.969 0-5.939 0-8.908 0-25.811 0-51.851 0-77.662 0-19.416 0-30.836 10.964-30.836 30.608-0.228 40.887-0.228 82.002 0 122.889 0 19.872 11.421 30.836 31.522 30.836 103.017 0 206.033 0 309.050 0 19.644 0 30.836-10.964 31.065-30.38 0.228-41.344 0.228-82.459 0-123.803 0-18.959-11.421-30.151-30.608-30.151-28.781 0-57.333 0-86.799 0 0-18.045 0-35.862 0-54.592 182.963 0 366.383 0 550.717 0 0-4.797 0-8.223 0-11.878 0-149.157 0-298.086 0-447.243 0-6.396 1.599-11.193 6.167-15.761 19.872-20.786 39.516-41.572 58.932-63.043 3.426-3.883 5.939-9.822 6.167-14.847 0.457-61.901 0.228-124.031 0.228-185.933 0-28.781-17.588-46.369-46.141-46.369-300.142 0-600.284 0-900.426 0-28.781 0-44.77 16.218-44.77 44.998 0 62.358 0 124.488-0.228 186.846 0 6.624 2.056 11.193 6.396 15.761 19.872 20.786 39.288 42.029 59.16 62.587 4.34 4.568 5.939 8.908 5.939 15.076-0.228 149.157-0.228 298.086-0.228 447.243-0.228 3.655-0.228 7.309-0.228 12.106zM95.479 696.405c0-145.959 0-291.462 0-437.193 266.564 0 532.672 0 799.008 0 0 145.959 0 291.462 0 437.193-266.564 0-532.672 0-799.008 0zM969.408 157.337c-316.131 0-631.349 0-946.566 0-0.228-1.599-0.457-2.284-0.457-3.198 0-58.018 0-116.037 0-174.055 0-13.248 7.995-20.329 21.928-20.329 301.056 0 601.883 0 902.938 0 14.619 0 22.157 7.309 22.157 21.928 0 16.218 0 32.435 0 48.653 0 42.029 0 84.058 0 127.001zM952.962 183.834c-14.619 15.761-28.781 30.151-42.029 44.998-5.254 5.71-10.507 7.995-18.273 7.995-243.494-0.228-486.76-0.228-730.254-0.228-22.157 0-44.313 0.228-66.47-0.228-4.112 0-9.365-2.284-12.335-5.254-13.020-12.563-25.583-26.040-38.146-39.060-2.513-2.513-4.797-5.025-7.995-8.451 305.624 0.228 609.649 0.228 915.501 0.228zM345.14 799.422c4.34 0 7.538 0 10.507 0 32.664 0 65.328 0.228 97.992-0.228 7.309 0 10.050 2.056 9.822 9.594-0.228 39.288-0.228 78.576 0 117.636 0 7.309-2.056 9.822-9.594 9.822-101.875-0.228-203.521-0.228-305.395 0-7.309 0-10.050-1.827-10.050-9.594 0.228-39.288 0.228-78.576 0-117.636 0-7.309 2.056-10.050 9.594-9.822 32.892 0.457 66.013 0.228 98.905 0.228 2.969 0 5.939 0 10.050 0 0-26.725 0-52.536 0-78.119 29.694 0 58.247 0 87.713 0 0.457 25.811 0.457 51.394 0.457 78.119zM587.264 350.808c-148.015 0-295.573 0-443.36 0 0 85.429 0 170.172 0 255.6 147.787 0 295.345 0 443.36 0 0-84.972 0-169.943 0-255.6zM563.737 374.563c0 69.668 0 138.878 0 208.318-132.254 0-264.052 0-396.078 0 0-69.896 0-139.107 0-208.318 132.483 0 264.052 0 396.078 0zM637.288 644.326c29.238 0 58.247 0 87.484 0 0-29.009 0-57.79 0-86.799-29.238 0-58.018 0-87.484 0 0 28.552 0 57.105 0 86.799zM702.387 580.825c0 14.39 0 27.867 0 41.344-14.162 0-27.639 0-41.344 0 0-13.934 0-27.41 0-41.344 13.934 0 27.41 0 41.344 0zM849.031 557.070c-29.238 0-58.018 0-87.256 0 0 29.009 0 57.79 0 87.027 29.009 0 57.79 0 87.256 0 0-28.781 0-57.333 0-87.027zM785.303 580.825c14.39 0 27.867 0 41.801 0 0 13.934 0 27.41 0 41.115-14.162 0-27.867 0-41.801 0 0-13.934 0-26.953 0-41.115zM724.543 311.52c-29.238 0-58.018 0-87.484 0 0 29.009 0 57.561 0 86.799 29.009 0 57.79 0 87.484 0 0-28.552 0-57.105 0-86.799zM702.615 376.391c-14.162 0-27.867 0-41.572 0 0-14.162 0-27.639 0-40.887 14.162 0 27.867 0 41.572 0 0 13.934 0 27.182 0 40.887zM849.031 311.292c-29.238 0-58.018 0-87.256 0 0 29.009 0 57.79 0 87.027 29.009 0 57.79 0 87.256 0 0-28.781 0-57.333 0-87.027zM785.531 335.275c14.162 0 27.639 0 41.572 0 0 13.934 0 27.41 0 41.344-13.934 0-27.41 0-41.572 0 0-13.934 0-27.41 0-41.344zM637.059 434.409c0 29.238 0 57.561 0 86.799 29.009 0 57.79 0 87.484 0 0-28.552 0-57.333 0-86.799-29.238 0-58.018 0-87.484 0zM702.387 457.936c0 14.39 0 27.867 0 41.344-14.162 0-27.639 0-41.344 0 0-13.934 0-27.41 0-41.344 13.934 0 27.41 0 41.344 0zM849.26 521.208c0-29.238 0-57.79 0-86.799-29.238 0-58.247 0-87.484 0 0 29.009 0 57.561 0 86.799 28.781 0 57.561 0 87.484 0zM785.531 499.508c0-14.162 0-27.639 0-41.344 14.162 0 27.639 0 41.344 0 0 14.162 0 27.639 0 41.344-13.934 0-27.182 0-41.344 0zM493.841 7.038c-28.552 0.685-51.623 24.669-50.709 53.222 0.914 28.324 24.441 50.937 52.536 50.48 28.552-0.457 51.623-24.212 51.166-52.765-0.685-28.781-24.441-51.623-52.993-50.937zM495.211 30.337c15.532 0.228 28.095 13.020 28.095 28.552s-12.791 28.324-28.324 28.324c-15.761 0-28.781-13.248-28.552-29.009 0.457-15.532 13.477-28.095 28.781-27.867zM425.087 883.48c-82.687 0-164.918 0-247.606 0 0 7.538 0 14.847 0 22.613 82.687 0 164.918 0 247.606 0 0-7.766 0-15.076 0-22.613zM425.087 855.384c0-7.766 0-15.076 0-22.613-82.459 0-164.69 0-247.377 0 0 7.538 0 14.847 0 22.613 82.459 0 164.69 0 247.377 0z" />
<glyph unicode="&#xe938;" glyph-name="icon-outlet" horiz-adv-x="1203" d="M1093.075-29.691c27.218 0 53.293 0 79.596 0 4.574 0 9.149 0.229 13.723-0.229 9.378-0.915 16.468-8.463 16.697-17.154 0.229-9.149-6.176-15.782-16.697-16.697-2.973-0.229-6.176-0.229-9.149-0.229-383.8 0-767.6 0-1151.4 0-18.298 0-26.075 5.032-25.846 16.697 0.229 11.436 8.005 16.697 26.075 16.697 18.984 0 37.968 0 58.782 0 0 4.803 0 8.692 0 12.809 0 244.278 0 488.556-0.229 732.834 0 5.718-2.745 12.58-6.633 16.926-37.74 42.771-54.208 93.548-57.181 149.586-0.686 13.723 5.261 19.213 19.213 19.213 362.071 0 724.142 0 1086.213 0 15.325 0 21.5-6.633 20.585-21.729-3.431-51.234-17.841-98.58-50.548-139.522-2.516-3.202-3.66-8.234-3.66-12.58-0.229-248.852-0.229-497.705-0.229-746.557 0-2.745 0.229-5.261 0.686-10.064zM115.048 700.169c0-3.66 0-6.404 0-8.92 0-236.272 0-472.545-0.229-708.817 0-10.979 4.346-12.122 13.495-12.122 305.576 0.229 611.381 0.229 916.957 0 10.75 0 13.037 3.431 13.037 13.495-0.229 236.73-0.229 473.231-0.229 709.961 0 3.888 0 7.777 0 13.037-67.245-35.224-121.453-17.612-167.884 35.452-27.447-32.021-59.926-54.208-103.155-53.979-43 0-75.708 21.729-102.469 54.436-27.676-32.25-60.155-54.436-103.384-54.436-43 0.229-75.708 21.729-102.469 54.436-27.676-32.479-60.155-54.436-103.384-54.436-43 0.229-75.708 21.729-102.011 53.979-57.867-56.266-85.772-63.814-158.277-42.085zM53.522 867.595c-0.457-1.601-0.915-2.745-0.915-3.66 6.176-46.202 21.958-87.83 57.639-119.623 36.825-32.708 84.628-32.936 120.995 0.457 10.293 9.378 18.984 20.814 27.218 32.25 10.75 15.096 21.043 15.096 32.021 0 8.92-12.351 18.069-24.702 29.505-34.537 34.537-30.192 78.453-30.42 113.447-0.915 11.208 9.378 20.585 21.271 29.505 33.165 12.58 16.926 22.872 16.926 34.995 0 8.463-11.894 18.069-23.787 29.277-33.394 33.851-28.591 76.394-29.277 110.703-0.915 12.122 10.064 22.186 22.872 31.793 35.681 11.436 15.325 22.415 15.096 33.623-0.686 8.692-11.894 17.841-24.016 29.048-33.394 34.080-29.277 77.080-29.734 111.618-1.144 12.122 10.064 22.186 22.872 31.564 35.681 11.894 16.011 21.729 16.239 32.936-0.686 5.947-8.92 12.351-17.612 19.67-25.16 37.74-38.654 86.687-40.942 127.857-6.176 30.42 25.617 44.144 60.612 53.064 98.352 1.83 7.777 2.287 16.011 3.431 24.702-354.294 0-706.759 0-1058.995 0zM584.391 959.771c171.772 0 343.544 0 515.545 0 3.888 0 7.777 0.457 11.436-0.229 8.692-1.372 13.723-6.862 13.723-15.553 0.229-8.692-4.574-14.41-13.037-16.239-3.66-0.915-7.548-0.686-11.436-0.686-344.688 0-689.605 0-1034.293 0-2.973 0-6.176 0-9.149 0.229-8.92 0.915-13.723 6.176-14.181 14.867-0.457 9.378 4.574 15.096 13.495 17.154 3.66 0.915 7.548 0.457 11.436 0.457 172.001 0.229 344.231 0 516.46 0zM756.392 91.075c-76.623 0-153.245 0-229.868 0-26.99 0-38.197 11.208-38.197 38.197 0 150.043 0 300.315 0 450.359 0 4.574 0 9.149 0.686 13.723 2.287 13.495 15.096 24.474 27.676 24.474 156.905-0.457 313.81-0.686 470.944-1.144 27.447 0 38.654-11.208 38.654-38.883 0-149.357 0-298.714 0-448.071 0-27.218-11.436-38.654-39.112-38.654-76.851 0-153.703 0-230.783 0zM520.348 123.554c158.049 0 314.954 0 473.002 0 0 153.932 0 307.406 0 460.88-157.591 0-314.954 0-473.002 0 0-153.932 0-306.948 0-460.88zM441.667 251.64c0-68.617 0-137.235 0-205.852 0-25.388-11.665-37.053-36.825-37.053-65.644 0-131.059 0-196.703 0-24.702 0-36.596 11.894-36.596 36.367 0 138.378 0 276.528 0 414.906 0 24.016 11.665 35.681 35.681 35.681 65.644 0 131.059 0 196.703 0 26.075 0 37.74-11.665 37.74-37.511 0-68.617 0-137.692 0-206.538zM408.96 40.756c0 141.581 0 282.017 0 422.912-68.389 0-136.549 0-204.937 0 0-141.352 0-282.017 0-422.912 68.389 0 135.862 0 204.937 0zM910.553 451.088c-3.888-6.176-5.947-10.75-9.149-13.952-63.585-63.814-127.4-127.628-191.214-191.442-8.234-8.234-18.527-8.234-25.16-0.915-5.947 6.633-4.803 14.638 3.431 22.872 63.814 63.814 127.4 127.628 191.671 191.214 3.66 3.66 11.665 5.947 16.697 4.803 4.803-1.144 8.463-7.548 13.723-12.58zM646.147 325.061c-5.489 4.117-11.665 6.404-13.723 10.75-1.83 4.346 0.229 10.521 1.372 15.782 0.457 2.287 3.431 3.888 5.261 5.947 41.17 41.17 82.341 82.57 123.74 123.511 3.66 3.66 10.064 7.319 14.41 6.633 5.032-0.686 11.436-5.489 13.495-10.064 1.83-3.888-1.601-10.293-3.431-15.325-0.457-1.601-2.516-2.745-3.888-4.117-40.713-40.713-81.426-81.426-122.139-121.91-3.66-4.346-9.149-7.090-15.096-11.208zM776.063 195.602c-5.489 4.574-12.122 7.319-13.723 11.894s0 12.58 3.431 16.239c12.351 13.952 26.075 26.761 39.112 39.798 29.048 29.048 57.867 58.325 87.373 86.915 4.117 4.117 10.979 7.319 16.697 7.319 11.665 0 17.383-12.58 10.75-22.415-1.601-2.516-3.888-4.574-6.176-6.862-40.713-40.713-81.197-81.426-122.139-121.91-3.66-3.66-8.92-6.404-15.325-10.979zM372.821 234.257c0-11.436-8.463-20.356-19.899-20.585-11.665-0.229-21.271 9.378-21.043 20.814 0.229 10.979 9.835 20.128 20.814 20.128 11.208 0 20.128-9.149 20.128-20.356z" />
<glyph unicode="&#xe939;" glyph-name="addcart" horiz-adv-x="1402" d="M1186.276 936.094c120.090-1.687 216.837-100.122 215.712-219.087-1.125-121.496-100.122-217.4-223.024-215.712-118.121 1.406-213.743 101.809-212.056 222.181 1.969 117.559 101.809 214.306 219.368 212.619zM1344.334 718.414c0 88.872-70.873 160.026-159.464 160.308-88.591 0-160.308-71.154-160.589-159.464-0.281-87.747 71.998-160.308 159.745-160.589 88.029-0.562 160.026 71.435 160.308 159.745zM691.573 56.090c-0.281-66.654-53.998-120.090-120.934-120.090-66.373 0-120.653 54.28-120.653 120.653 0 66.654 55.405 121.496 122.059 120.934 66.092-0.281 119.809-54.842 119.528-121.496zM570.92 120.213c-35.155 0-63.279-27.843-63.279-62.998-0.281-34.874 27.843-63.561 62.717-64.123s64.686 29.249 64.404 64.123c-0.281 34.593-28.968 62.998-63.842 62.998zM803.507 57.215c0.281 66.654 54.561 120.653 120.934 120.371 66.092-0.281 120.653-54.842 120.934-120.934 0-66.935-54.842-121.215-122.059-120.934-66.935 0.562-120.090 54.561-119.809 121.496zM924.722 120.213c-34.874 0.281-63.842-27.562-64.404-62.436-0.562-35.155 28.687-64.967 63.561-64.967s63.279 28.405 63.279 63.279c0.281 35.436-27.28 63.561-62.436 64.123zM244.118 903.189c-18.562 0-36.28 0-53.998 0-53.998 0-107.715 0-161.714 0-12.375 0-23.624 4.5-26.999 16.031-2.531 8.718-1.406 20.531 2.531 28.687 3.094 5.906 13.5 11.531 20.531 11.531 88.591 0.844 177.182 0.562 267.179 0.562 4.781-25.312 9.281-50.623 13.781-75.654 7.312-41.061 15.468-81.841 21.656-122.902 1.969-12.093 6.469-14.625 17.999-14.625 163.964 0.281 327.927 0.281 491.891 0.281 5.062 0 10.406 0.281 15.468-0.281 15.187-1.125 26.155-12.656 26.718-27.562 0.281-14.906-10.968-27.843-26.718-29.249-4.781-0.562-9.281-0.281-14.062-0.281-159.745 0-319.49 0-479.235 0-5.625 0-11.25 0-19.124 0 24.187-135.277 48.092-269.429 72.279-404.144 225.274 0 449.424 0 674.979 0 5.625 36.28 11.25 72.279 16.874 108.278 1.406 9.843 2.531 19.406 5.062 28.968 3.937 15.468 18.562 24.468 32.905 21.374 14.906-3.375 25.030-16.874 22.781-32.343-9-58.217-17.999-116.434-27.562-174.651-0.562-3.375-5.625-6.469-9.281-8.718-1.687-1.125-4.5-0.281-7.031-0.281-247.492 0-494.704 0-742.196 0-4.219 0-8.437 0-14.343 0-39.655 224.993-79.873 449.424-120.371 674.979zM1213.275 690.008c0-15.187 0.281-29.249 0-43.030-0.281-20.249-11.812-32.905-28.968-32.624-16.874 0.281-28.405 13.218-28.687 33.186-0.281 13.5 0 26.999 0 42.749-14.625 0-28.405 0-42.186 0-19.968 0.281-33.186 11.25-33.749 28.124-0.562 17.437 12.656 28.968 33.749 29.249 13.5 0.281 26.999 0 42.186 0 0 15.187 0 29.249 0 43.030 0.281 20.249 11.25 32.624 28.687 32.624s28.405-12.375 28.687-32.624c0.281-13.781 0-27.843 0-43.311 16.031 0 29.812 0.281 43.874 0 19.406-0.281 31.78-11.25 32.062-27.843 0.281-17.156-12.656-28.968-32.343-29.249-14.062-0.562-27.843-0.281-43.311-0.281z" />
<glyph unicode="&#xe93a;" glyph-name="change" horiz-adv-x="1267" d="M456.563-64l-37.312 37.312 211.134 211.134-211.134 211.078 37.312 37.367 229.79-229.79v-37.367zM810.464 463.165l-229.734 229.79v37.312l229.734 229.734 37.312-37.312-211.078-211.134 211.078-211.078zM976.355 158.082h-26.364v52.784h26.364c130.925 0 237.498 106.572 237.498 237.498s-106.572 237.498-237.498 237.498h-343.065v52.784h343.065c160.026 0 290.281-130.199 290.281-290.281s-130.255-290.281-290.281-290.281zM633.346 158.082h-343.065c-160.082 0-290.281 130.199-290.281 290.225 0 160.082 130.199 290.281 290.281 290.281h26.364v-52.784h-26.364c-130.925 0-237.498-106.572-237.498-237.498s106.572-237.498 237.498-237.498h343.065v-52.728z" />
<glyph unicode="&#xe93b;" glyph-name="alert-success" horiz-adv-x="1101" d="M1073.538 959.979c-6.545-0.339-12.695-3.216-17.209-8.012-138.572-145.004-437.495-467.342-584.587-621.769l-199.113 175.528c-9.817 10.156-26.010 10.438-36.166 0.621s-10.438-26.010-0.621-36.166c1.016-1.016 2.088-1.975 3.216-2.821l217.506-191.947c10.269-8.915 25.728-8.181 35.207 1.58 142.578 149.179 459.612 491.039 601.344 639.316 9.93 10.043 9.874 26.236-0.113 36.166-5.134 5.191-12.187 7.899-19.466 7.504zM517.388 959.584c-62.91 0.733-126.159-10.269-186.7-33.176-264.054-99.867-397.379-395.686-297.456-659.741 99.867-264.054 395.686-397.379 659.741-297.456 264.054 99.867 397.379 395.686 297.456 659.741-5.078 13.259-19.917 19.86-33.176 14.783s-19.86-19.917-14.783-33.176c0 0 0 0 0 0 90.106-238.157-29.734-503.283-267.891-593.388s-503.283 29.734-593.388 267.891c-90.106 238.157 29.734 503.283 267.891 593.388 145.399 55.011 308.627 33.232 434.222-58.397 12.356-6.94 27.985-2.595 34.925 9.705 5.868 10.382 3.78 23.415-4.965 31.483-87.228 63.587-191.044 97.102-295.876 98.343v0z" />
<glyph unicode="&#xe93c;" glyph-name="alert-warning" horiz-adv-x="1146" d="M1126.126 120.391l-450.467 780.277c-21.19 36.563-60.577 59.331-102.791 59.331-42.296 0-81.684-22.768-102.791-59.331l-454.206-786.593c-21.107-36.563-21.107-82.099 0-118.745s60.494-59.331 102.791-59.331h907.831c0.249 0 0.499 0 0.665 0s0.332 0 0.415 0c65.314 0.166 118.413 53.348 118.413 118.745 0 23.433-6.897 46.202-19.86 65.646zM1027.241-11.234c-0.083 0-0.166 0-0.249 0h-908.329c-23.516 0-45.371 12.631-57.087 32.989-11.8 20.276-11.8 45.62 0 65.979l454.123 786.593c11.8 20.359 33.654 32.989 57.17 32.989s45.371-12.631 57.087-32.989l450.882-781.025c0.332-0.582 0.665-1.080 0.997-1.662 7.479-10.886 11.301-23.683 11.301-36.978 0.083-36.396-29.582-65.896-65.896-65.896zM572.951 264.232c15.456 0 37.061 10.553 38.391 38.391l13.212 307.79c0 28.502-23.101 51.603-51.603 51.603s-51.603-23.101-51.603-51.603l13.212-307.79c1.496-29.25 21.107-38.391 38.391-38.391zM572.951 220.855c-17.45 0-34.402-7.146-46.7-19.362-12.298-12.298-19.278-29.167-19.278-46.617s6.98-34.402 19.278-46.7c12.298-12.298 29.25-19.278 46.7-19.278 17.367 0 34.402 6.98 46.534 19.278 12.381 12.215 19.362 29.25 19.362 46.7 0 17.284-6.98 34.319-19.362 46.617-12.132 12.215-29.167 19.362-46.534 19.362z" />
<glyph unicode="&#xe93d;" glyph-name="alert-info" d="M853.384 960h-682.692c-93.926 0-170.692-76.766-170.692-170.692v-682.692c0-93.85 76.766-170.692 170.692-170.692h682.692c93.85 0 170.692 76.766 170.692 170.692v682.692c-0.075 93.926-76.841 170.692-170.692 170.692zM955.738 106.616c0-56.295-46.060-102.43-102.43-102.43h-682.616c-56.295 0-102.43 46.060-102.43 102.43v682.692c0 56.295 46.060 102.43 102.43 102.43h682.692c56.295 0 102.43-46.060 102.43-102.43v-682.692zM477.907 567.439h68.262v-426.654h-68.262v426.654zM563.177 686.953c0-29.051-22.202-51.177-51.177-51.177-29.051 0-51.177 22.202-51.177 51.177 0 29.051 22.202 51.177 51.177 51.177 29.051 0 51.177-22.202 51.177-51.177z" />
<glyph unicode="&#xe93e;" glyph-name="alert-error" d="M511.807-64c131.33 0 262.66 49.611 361.881 150.312 199.923 199.923 199.923 523.84 0 723.762s-523.84 199.923-723.762 0c-199.923-199.923-199.923-523.84 0-723.762 99.221-99.221 230.551-150.312 361.881-150.312zM843.059 779.446c176.565-176.565 182.421-462.582 14.607-646.418l-661.025 660.961c88.99 81.719 201.338 121.163 315.166 121.163 119.683 1.416 239.302-45.235 331.252-135.705zM166.012 763.359l661.025-661.025c-183.836-167.814-468.374-161.959-646.418 14.607-176.629 178.045-182.421 462.582-14.607 646.418z" />
<glyph unicode="&#xe93f;" glyph-name="squar-plus" d="M527.981 463.981h271.999v-32.033h-271.999v-271.999h-31.963v272.069h-271.999v31.963h271.999v271.999h32.033v-271.999zM1024 815.992v-736.055c0-80.012-63.996-144.008-144.008-144.008h-735.985c-80.012 0.071-144.008 64.066-144.008 144.078v735.985c0 80.012 63.996 144.008 144.008 144.008h736.055c79.942 0 143.937-63.996 143.937-144.008zM992.037 815.992c0 62.373-49.602 111.975-111.975 111.975h-736.055c-62.373 0-111.975-49.602-111.975-111.975v-736.055c0-62.373 49.602-111.975 111.975-111.975h736.055c62.373 0 111.975 49.602 111.975 111.975v736.055z" />
<glyph unicode="&#xe940;" glyph-name="squar-minus" d="M496.019 432.019h-271.999v31.963h271.999zM485.647 463.981h314.333v-32.033h-314.333zM1024 815.992v-736.055c0-80.012-63.996-144.008-144.008-144.008h-735.985c-80.012 0.071-144.008 64.066-144.008 144.078v735.985c0 80.012 63.996 144.008 144.008 144.008h736.055c79.942 0 143.937-63.996 143.937-144.008zM992.037 815.992c0 62.373-49.602 111.975-111.975 111.975h-736.055c-62.373 0-111.975-49.602-111.975-111.975v-736.055c0-62.373 49.602-111.975 111.975-111.975h736.055c62.373 0 111.975 49.602 111.975 111.975v736.055z" />
<glyph unicode="&#xe941;" glyph-name="date-time" horiz-adv-x="1074" d="M707.997 960c3.723 0 7.227 0 10.95 0 16.424-6.351 23.213-18.176 22.118-35.914-0.876-12.701-0.219-25.403-0.219-39.418 5.256 0 9.636 0 13.796 0 58.47 0 116.722 0.219 175.192-0.219 10.512 0 21.242-0.438 31.535-2.628 70.077-13.796 112.78-67.449 112.78-141.687 0-220.086 0-439.952 0-660.038 0-9.417-0.219-19.052-1.752-28.25-12.701-71.61-67.23-116.065-142.344-116.065-261.913 0-524.044 0-785.957 0-10.512 0-21.242 0.657-31.535 2.628-69.201 14.015-112.342 67.449-112.561 139.935 0 221.399 0 443.018 0 664.417 0 8.76 0.219 17.519 1.752 26.060 12.92 70.734 66.792 115.627 139.497 116.065 59.565 0.438 118.912 0 178.477 0 4.161 0 8.541 0 14.015 0 0 14.015 0.657 26.717-0.219 39.418-1.095 17.519 5.694 29.564 22.118 35.695 3.723 0 7.227 0 10.95 0 16.424-6.351 22.994-18.395 21.899-35.914-0.876-12.701-0.219-25.403-0.219-38.542 99.641 0 198.186 0 297.827 0 0 13.358 0.657 26.060-0.219 38.542-0.876 17.519 5.694 29.564 22.118 35.914zM537.184 549.831c-152.198 0-304.397 0-456.595 0-16.643 0-17.957-1.314-17.957-18.176 0-150.666 0.876-301.331-0.438-452.216-0.438-46.426 37.009-81.246 80.808-81.027 262.789 1.095 525.358 1.095 788.147 0 43.798-0.219 81.246 34.382 80.808 81.027-1.314 150.666-0.438 301.331-0.438 452.216 0 16.862-1.314 18.176-17.957 18.176-151.979 0-304.178 0-456.376 0zM333.523 821.379c-4.161 0.219-7.008 0.438-9.855 0.438-61.974 0-123.949 0.219-186.142 0-42.046-0.219-74.238-31.973-74.676-74.019-0.438-40.075 0-80.37-0.219-120.445 0-10.074 3.942-13.358 13.796-13.358 307.244 0.219 614.488 0.219 921.512 0 9.636 0 13.796 3.285 13.796 13.358-0.219 40.075 0.219 80.37-0.219 120.445-0.438 42.046-32.63 74.019-74.457 74.019-61.755 0.219-123.292 0-185.047 0-3.504 0-7.008 0-11.169 0 0-13.577-0.438-25.622 0.219-37.666 0.219-4.38 3.066-8.979 5.694-12.92 4.818-7.227 11.607-13.358 14.891-21.242 10.074-24.527-0.876-52.12-24.089-64.383-22.994-12.044-51.463-5.037-66.354 15.767-15.329 21.68-12.044 50.149 7.665 68.544 2.628 2.409 6.57 5.256 6.789 7.884 0.657 14.453 0.219 28.907 0.219 43.141-100.079 0-198.405 0-297.827 0 0-12.263 0.438-23.87-0.219-35.257-0.219-6.789 1.752-11.169 7.008-15.767 17.738-15.329 22.337-38.98 12.92-59.784-8.76-19.271-28.25-31.754-49.054-30.44-21.899 1.314-37.885 12.263-46.426 32.849-8.103 19.49-2.847 41.389 12.482 56.281 3.285 3.285 7.665 7.665 8.103 11.825 1.314 13.139 0.657 26.279 0.657 40.732zM536.089 348.797c-22.118 0-44.455-0.219-66.573 0-21.023 0.219-34.82 12.701-34.82 31.316 0 17.957 13.139 31.316 33.506 31.535 45.769 0.657 91.757 0.438 137.526 0 20.366-0.219 32.63-13.358 32.192-32.192-0.657-18.176-13.358-30.221-33.068-30.44-22.775-0.438-45.769-0.219-68.763-0.219zM807.418 349.016c-23.432 0-46.645-0.219-70.077 0.219-12.044 0.219-21.899 4.818-27.812 15.986-5.913 11.388-5.037 22.556 1.752 33.068 6.351 9.855 16.424 13.358 27.374 13.358 45.55 0.438 91.1 0.438 136.65 0 20.585-0.219 33.725-13.577 33.725-31.535 0-18.614-13.796-31.097-34.82-31.316-22.337 0-44.455 0-66.792 0.219 0-0.219 0-0.219 0 0zM535.87 171.634c-23.213 0-46.645-0.657-69.858 0.219-26.060 0.876-39.418 26.717-25.622 48.835 6.351 10.074 16.205 13.796 26.936 13.796 46.645 0.438 93.29 0.657 139.716 0 19.709-0.219 31.535-14.015 30.878-32.411-0.657-17.738-13.139-30.002-32.192-30.221-23.213-0.657-46.426-0.219-69.858-0.219 0 0 0 0 0 0zM807.418 171.634c-23.432 0-46.645-0.438-70.077 0.219-25.841 0.657-39.856 26.498-26.498 48.397 6.351 10.512 16.643 14.015 28.031 14.234 45.55 0.438 91.1 0.438 136.65 0 20.366-0.219 33.725-13.577 33.506-31.535-0.219-18.614-13.796-30.878-35.038-31.097-22.118-0.438-44.455-0.438-66.573-0.219 0-0.219 0 0 0 0zM266.512 171.634c-22.994 0-45.988-0.219-68.982 0-12.044 0.219-21.899 4.818-27.812 15.986-5.913 11.388-5.037 22.337 1.533 33.068 6.351 10.074 16.424 13.358 27.155 13.577 45.988 0.438 91.976 0.657 137.745 0 20.366-0.219 33.068-14.015 32.411-32.411s-13.577-30.002-34.382-30.221c-22.556-0.219-45.112-0.219-67.668 0 0-0.219 0-0.219 0 0z" />
<glyph unicode="&#xe942;" glyph-name="edit-1" d="M313.772-64h-292.854c-11.552 0-20.918 9.366-20.918 20.918v292.853c-0.032 5.56 2.151 10.904 6.067 14.852l593.236 593.865c8.159 8.11 21.336 8.11 29.495 0l230.099-230.099c8.775-7.515 9.796-20.72 2.282-29.495s-20.72-9.796-29.495-2.282c-0.818 0.701-1.581 1.464-2.282 2.282l-215.247 215.666-572.319-572.737v-263.985h263.359l653.272 654.108c31.971 32.014 31.971 83.873 0 115.886l-146.427 146.427c-32.377 31.080-83.509 31.080-115.886 0-8.145-8.202-21.397-8.249-29.599-0.104s-8.249 21.396-0.104 29.599c48.355 48.331 126.729 48.331 175.084 0l146.427-146.427c48.216-48.403 48.216-126.681 0-175.084l-659.338-659.339c-3.807-4.224-9.169-6.716-14.852-6.903zM215.457 35.152c-5.471-0.201-10.804 1.752-14.852 5.439l-194.538 194.538c-7.515 8.774-6.493 21.979 2.282 29.494 7.831 6.707 19.381 6.707 27.212 0l194.538-194.538c8.202-8.135 8.257-21.38 0.122-29.582-3.958-3.991-9.354-6.22-14.973-6.188l0.209 0.837z" />
<glyph unicode="&#xe943;" glyph-name="user-solid" horiz-adv-x="1023" d="M478.057 960c20.108 0 40.219 0 60.324 0 11.737-2.552 23.761-2.274 35.61-3.671 59.845-7.047 108.444-37.248 152.343-75.911 32.388-28.527 59.537-61.292 72.070-103.907 4.277-14.543 6.929-29.281 6.917-44.494-0.042-54.279 1.834-108.634-0.437-162.816-3.894-93.044-29.707-179.045-89.88-252.431-16.527-20.156-15.665-24.799 8.416-36.071 76.9-36.008 153.519-72.598 230.124-109.222 15.417-7.369 30.4-15.481 44.515-25.281 15.016-10.431 23.969-24.642 24.069-42.439 0.211-39.643 2.166-79.343-1.192-118.953-2.118-25.010-13.879-43.89-47.709-47.513-8.491-0.911-16.95-1.294-25.471-1.294-293 0.024-585.997 0.018-878.996 0.036-6.507 0-12.974 0.673-19.456 1.14-36.068 2.603-48.3 20.253-49.302 53.516 0 37.206 0 74.402 0 111.569 0.109 17.282 5.719 31.109 20.31 42.328 21.827 16.793 46.629 27.664 71.069 39.2 71.295 33.643 142.79 66.858 213.744 101.222 18.645 9.031 19.586 12.344 5.946 28.642-67.884 81.123-95.994 175.938-96.86 280.128-0.359 43.193 0.606 86.408-0.235 129.589-0.968 49.546 17.888 91.168 49.628 127.408 39.803 45.447 88.441 78.426 145.589 98.604 20.033 7.074 41.124 6.44 61.766 9.080 2.428 0.314 5.035-0.386 7.101 1.541z" />
<glyph unicode="&#xe944;" glyph-name="avatar" horiz-adv-x="1023" d="M959.268 159.939l-278.306 132.172c76.946 74.14 119.859 176.801 118.638 283.687v159.999c-0.132 105.962-146.729 224.203-288.044 224.203-141.249 0-288.143-117.977-288.143-223.906v-160.263c1.155-106.787 44.893-208.755 121.509-283.126l-280.914-132.733c0 0-63.973-28.455-63.973-63.94v-96.092c0-35.288 28.62-63.973 63.973-63.973h895.261c35.288 0 63.973 28.653 63.973 63.973v96.092c0 37.565-63.973 63.907-63.973 63.907z" />
</font>
</defs>
</svg>
